<svg id="Component_3_1" data-name="Component 3 – 1" xmlns="http://www.w3.org/2000/svg" xmlns:xlink="http://www.w3.org/1999/xlink" width="15" height="15" viewBox="0 0 15 15">
  <defs>
    <clipPath id="clip-path">
      <rect id="Rectangle_26927" data-name="Rectangle 26927" width="15" height="15" fill="none"/>
    </clipPath>
  </defs>
  <g id="Group_25529" data-name="Group 25529">
    <g id="Group_25528" data-name="Group 25528" opacity="0" clip-path="url(#clip-path)">
      <path id="Path_5408" data-name="Path 5408" d="M15,7.5A7.5,7.5,0,1,1,7.5,0,7.5,7.5,0,0,1,15,7.5" fill="#ff8751"/>
      <line id="Line_50" data-name="Line 50" y2="7.377" transform="translate(7.5 3.833)" fill="none" stroke="#5c6167" stroke-linecap="round" stroke-linejoin="round" stroke-width="1.5"/>
      <line id="Line_51" data-name="Line 51" x1="7.377" transform="translate(3.812 7.522)" fill="none" stroke="#5c6167" stroke-linecap="round" stroke-linejoin="round" stroke-width="1.5"/>
    </g>
  </g>
  <g id="Group_25531" data-name="Group 25531">
    <g id="Group_25530" data-name="Group 25530" clip-path="url(#clip-path)">
      <path id="Path_5409" data-name="Path 5409" d="M7.5,1A6.5,6.5,0,1,1,1,7.5,6.508,6.508,0,0,1,7.5,1m0-1A7.5,7.5,0,1,0,15,7.5,7.5,7.5,0,0,0,7.5,0" fill="#c2c2c2"/>
      <line id="Line_52" data-name="Line 52" y2="7.377" transform="translate(7.5 3.833)" fill="none" stroke="#d6d6d6" stroke-linecap="round" stroke-linejoin="round" stroke-width="1.5"/>
      <line id="Line_53" data-name="Line 53" x1="7.377" transform="translate(3.812 7.522)" fill="none" stroke="#d6d6d6" stroke-linecap="round" stroke-linejoin="round" stroke-width="1.5"/>
    </g>
  </g>
</svg>
