<svg xmlns="http://www.w3.org/2000/svg" width="18.221" height="15" viewBox="0 0 18.221 15">
  <g id="Group_25691" data-name="Group 25691" transform="translate(-30 -691.423)">
    <path id="Path_5544" data-name="Path 5544" d="M6.019,5.4,3.645,9.512a.247.247,0,0,0,.213.371H9.035L6.447,5.4a.247.247,0,0,0-.428,0" transform="translate(30.696 692.44)" fill="#6d6d6d"/>
    <path id="Path_5545" data-name="Path 5545" d="M9.828,4.229l-3.4,5.881h6.791a.247.247,0,0,0,.213-.371l-3.181-5.51a.247.247,0,0,0-.428,0" transform="translate(31.239 692.214)" fill="#6d6d6d"/>
    <path id="Path_5546" data-name="Path 5546" d="M4.536,4.234a.8.8,0,1,1-.8-.8.8.8,0,0,1,.8.8" transform="translate(30.567 692.085)" fill="#6d6d6d"/>
    <path id="Path_5547" data-name="Path 5547" d="M15.784,15H2.437A2.44,2.44,0,0,1,0,12.562V2.437A2.439,2.439,0,0,1,2.437,0H15.784a2.44,2.44,0,0,1,2.438,2.437V12.562A2.441,2.441,0,0,1,15.784,15M2.437,1.193A1.246,1.246,0,0,0,1.193,2.437V12.562a1.246,1.246,0,0,0,1.244,1.245H15.784a1.245,1.245,0,0,0,1.245-1.245V2.437a1.245,1.245,0,0,0-1.245-1.244Z" transform="translate(30 691.423)" fill="#6d6d6d"/>
  </g>
</svg>
