<svg xmlns="http://www.w3.org/2000/svg" width="9.512" height="12" viewBox="0 0 9.512 12">
  <path id="Path_5548" data-name="Path 5548" d="M-6.166-7.332H3.346v3.059H2.485a8.43,8.43,0,0,0-.382-1.2,2.371,2.371,0,0,0-.4-.668,1.256,1.256,0,0,0-.453-.325,2.061,2.061,0,0,0-.725-.1H-.592v9a4.729,4.729,0,0,0,.057.826,1.331,1.331,0,0,0,.176.488.809.809,0,0,0,.321.281,2.967,2.967,0,0,0,.633.2v.431H-3.423V4.238a4.636,4.636,0,0,0,.466-.132,1.12,1.12,0,0,0,.33-.171.8.8,0,0,0,.211-.259,1.5,1.5,0,0,0,.132-.431,4.93,4.93,0,0,0,.048-.8v-9H-3.344a2.456,2.456,0,0,0-.681.079,1.1,1.1,0,0,0-.5.33,2.414,2.414,0,0,0-.418.712A8.033,8.033,0,0,0-5.3-4.272h-.87Z" transform="translate(6.166 7.332)" fill="#6d6d6d"/>
</svg>
