<svg xmlns="http://www.w3.org/2000/svg" width="15.519" height="15.519" viewBox="0 0 15.519 15.519">
  <g id="Group_25690" data-name="Group 25690" transform="translate(-3244.206 -4232.741) rotate(45)">
    <path id="Path_5542" data-name="Path 5542" d="M1.974,0H.947A.947.947,0,0,0,0,.947V1.974H3.947V.947A.947.947,0,0,0,3,0Z" transform="translate(5296 690)" fill="#6d6d6d"/>
    <path id="Path_5543" data-name="Path 5543" d="M3.948,13.652V2.555H0v11.1a2.4,2.4,0,0,0,.19.888l1.5,3.411a.306.306,0,0,0,.561,0l1.5-3.411h0a2.4,2.4,0,0,0,.189-.887" transform="translate(5296 689.866)" fill="#6d6d6d"/>
  </g>
</svg>
