<svg xmlns="http://www.w3.org/2000/svg" xmlns:xlink="http://www.w3.org/1999/xlink" width="320" height="188" viewBox="0 0 320 188">
  <defs>
    <clipPath id="clip-path">
      <rect id="Rectangle_15" data-name="Rectangle 15" width="170.404" height="10.501" transform="translate(0 0)" fill="none"/>
    </clipPath>
  </defs>
  <g id="Group_55" data-name="Group 55" transform="translate(-20 -291)">
    <text id="러버테일에" transform="translate(20 407)" fill="#ff8751" font-size="50" font-family="Pretendard-SemiBold, Pretendard" font-weight="600" letter-spacing="-0.02em"><tspan x="0" y="0">러버테일</tspan><tspan y="0" fill="#6d6d6d">에</tspan></text>
    <text id="함께" transform="translate(20 347)" fill="#6d6d6d" font-size="50" font-family="Pretendard-SemiBold, Pretendard" font-weight="600" letter-spacing="-0.02em"><tspan x="0" y="0">함께</tspan></text>
    <text id="로그인해_주세요." data-name="로그인해 주세요." transform="translate(20 467)" fill="#6d6d6d" font-size="50" font-family="Pretendard-SemiBold, Pretendard" font-weight="600" letter-spacing="-0.02em"><tspan x="0" y="0">로그인해 주세요.</tspan></text>
    <g id="Group_45" data-name="Group 45" transform="translate(20 411.499)">
      <g id="Group_44" data-name="Group 44" clip-path="url(#clip-path)">
        <path id="Path_3017" data-name="Path 3017" d="M170.4,1.392c-.018-.128-.205-.194-.337.049l.151.354Z" fill="#ff2020"/>
        <path id="Path_3018" data-name="Path 3018" d="M168.774,2.435c-.1.331-.164.8.2.869,0-.459.156-.421.109-.927.145-.23.386-.291.451-.178,0-.126.335-.282.252-.531a1.34,1.34,0,0,0-.861.932c-.123.022-.118-.107-.147-.165" fill="#ff2020"/>
        <path id="Path_3019" data-name="Path 3019" d="M144.7,3.267l.14.1a.5.5,0,0,0-.14-.1" fill="#ff2020"/>
        <path id="Path_3020" data-name="Path 3020" d="M128.932,2.689c.1-.074.127-.13.117-.159-.087.081-.156.15-.117.159" fill="#ff2020"/>
        <path id="Path_3021" data-name="Path 3021" d="M126.45,3.9l.144-.067c-.067.007-.127.026-.144.067" fill="#ff2020"/>
        <path id="Path_3022" data-name="Path 3022" d="M144.7,3.267l-.359-.257c-.068.089.174.157.359.257" fill="#ff2020"/>
        <path id="Path_3023" data-name="Path 3023" d="M166.4,5.351a.748.748,0,0,0,.164-.2l-.178.152c.005.017.009.033.014.052" fill="#ff2020"/>
        <path id="Path_3024" data-name="Path 3024" d="M151.374,5.321l.124.03a.893.893,0,0,0,.135-.106Z" fill="#ff2020"/>
        <path id="Path_3025" data-name="Path 3025" d="M156.575,6.07c-.117-.019-.172.26-.224.38a.374.374,0,0,1,.27-.178.457.457,0,0,0-.046-.2" fill="#ff2020"/>
        <path id="Path_3026" data-name="Path 3026" d="M164.764,4.943l.117-.1-.117.1" fill="#ff2020"/>
        <path id="Path_3027" data-name="Path 3027" d="M147.764,4.121a.217.217,0,0,0-.011-.111.152.152,0,0,0,.011.111" fill="#ff2020"/>
        <path id="Path_3028" data-name="Path 3028" d="M5.571,7.279c.01-.018.006-.032.012-.048-.041.018-.056.035-.012.048" fill="#ff2020"/>
        <path id="Path_3029" data-name="Path 3029" d="M.585,2.849.658,2.9a.966.966,0,0,0,.128-.1Z" fill="#ff2020"/>
        <path id="Path_3030" data-name="Path 3030" d="M122.073,5.616l.021,0c.1-.071.042-.042-.021,0" fill="#ff2020"/>
        <path id="Path_3031" data-name="Path 3031" d="M79.26,7.975c.5.243-.813.336-.06.6-.065-.108.677-.453.06-.6" fill="#ff2020"/>
        <path id="Path_3032" data-name="Path 3032" d="M166.251,5.4a1.847,1.847,0,0,1-.2.117.732.732,0,0,0,.2-.117" fill="#ff2020"/>
        <path id="Path_3033" data-name="Path 3033" d="M79.2,8.578v0l.079.025L79.2,8.578" fill="#ff2020"/>
        <path id="Path_3034" data-name="Path 3034" d="M111.461,6a.345.345,0,0,0,.073.147c0-.029-.011-.069-.073-.147" fill="#ff2020"/>
        <path id="Path_3035" data-name="Path 3035" d="M119.512,6.827l-.207,0a.759.759,0,0,0,.207,0" fill="#ff2020"/>
        <path id="Path_3036" data-name="Path 3036" d="M107.337,4.777a.53.53,0,0,0-.271-.155.253.253,0,0,0,.028.051.28.28,0,0,1,.243.1" fill="#ff2020"/>
        <path id="Path_3037" data-name="Path 3037" d="M103.1,2.78a.775.775,0,0,0,.06.085l.144.047Z" fill="#ff2020"/>
        <path id="Path_3038" data-name="Path 3038" d="M19.4,2.774a.938.938,0,0,1-.309-.059c.18.106-.207.565.309.059" fill="#ff2020"/>
        <path id="Path_3039" data-name="Path 3039" d="M166.313,5.217a.181.181,0,0,1-.062.181l.131-.1c-.009-.044-.027-.079-.069-.082" fill="#ff2020"/>
        <path id="Path_3040" data-name="Path 3040" d="M106.207,6.694l-.654-.363a5.555,5.555,0,0,0,.654.363" fill="#ff2020"/>
        <path id="Path_3041" data-name="Path 3041" d="M50.742,7.706l-.153.111a.282.282,0,0,0,.153-.111" fill="#ff2020"/>
        <path id="Path_3042" data-name="Path 3042" d="M103.582,5.425a1.122,1.122,0,0,0-.286-.349.272.272,0,0,0-.1.031Z" fill="#ff2020"/>
        <path id="Path_3043" data-name="Path 3043" d="M19.087,2.713h0Z" fill="#ff2020"/>
        <path id="Path_3044" data-name="Path 3044" d="M15.431,6.5c.712-.377.154-.495.2-.759.736-.553.5.006.881-.005.449-.415.6-.948.921-1.23.064.025.143-.014.118.109.318-.612,1.26-1.258,1.42-1.912a.215.215,0,0,1,.119.014.852.852,0,0,1-.415-.305c.211-.21.264-.553.5-.432-.145.105-.092.2-.106.3l.166-.273c.42.105-.241.346-.068.549.332-.47.743-1.056,1.189-1.081.164.268-.788.47-.2.527a2.772,2.772,0,0,0-.575.2c.684.171-.311.177.359.4a3.9,3.9,0,0,0,.584-.354.959.959,0,0,1,.673-.167c.158-.2-.077-.276.094-.473a.819.819,0,0,1,1.023.321.635.635,0,0,0,.8.327c.3-.154.513-.552,1.151-.137l-.34.3c.88.3.674-.388,1.537.168-.215.088-.743-.11-.622-.022.512.488.5-.071.966.091l-.016.356c.961.278,2.091.465,3.161.856-.1.067-.317.089-.115.289a17.587,17.587,0,0,1,4,2.034l.612-.053c.113.053.161.215.014.213.464.319.1-.16.389-.162.3.1.316.317.1.32a10.941,10.941,0,0,1,3.675,1.158l-.221.019c.745.367,1.049-.3,1.7.165l-.153.013c1.681.6,3.649.636,5.007,1.118.263-.384,1.818.182,1.9-.43a5.26,5.26,0,0,0,2.294.252c.4-.081.5-.487.938-.707l.106.29c.181-.177.361-.34.528-.524l.467.2.4-.254c-.181.056-.422.026-.43-.066a2.871,2.871,0,0,1,1.752-.46c.447-.354.853-.719,1.257-1.079.038.123-.167.3-.305.486.555-.727.312.188.809-.476-.125,0-.053-.185-.072-.246a4.594,4.594,0,0,0,1.624-.886l.007.241a9.744,9.744,0,0,1,2.961-1.283c-.387-.028-.388-.4-.054-.5l.174.309c.189-.219-.362-.09.05-.375.438,0,.3.343.09.47a3.316,3.316,0,0,1,.484-.14c.03.1-.084.148-.109.272.209-.211.8.334,1.12.047l.012.1a10.767,10.767,0,0,1,2.509.652c.131-.247.461-.034.834-.1.639.41,1.271,1.01,2.1,1.452.647.2.286-.112.628-.111-.084.247.761.692.24.611a12.565,12.565,0,0,0,2.777,1.107c-.1-.161-.25-.276-.129-.318.261.071.513.346.43.444l-.076-.005a9.513,9.513,0,0,1,2.494,1.108,4.075,4.075,0,0,0,2.385.691l-.079.009c.474.013.943.017,1.415-.01.623.145-.41.129.033.361,1.54-.186,2.371.34,3.63.081a3.15,3.15,0,0,0,2.263.2,11.836,11.836,0,0,1,2.527-.326l-.117-.155c.291-.249.428,0,.688-.019-.072-.122-.4-.067-.222-.209,1.365-.487,2.766-.984,4.146-1.631S91.054,6.644,92.2,5.963c.824-.489-.046-1.1,1.209-1.353l-.123.452A5.492,5.492,0,0,1,95.7,3.784a19.611,19.611,0,0,1,2.614-.351c-.111.072-.121.17-.289.162.338.23,1.34.18,1.4,0,.272.082.028.187.173.321.326.2,1.013-.035,1.143.245.021.047-.129.04-.2.04.276-.042,1.113.42.978.075.612.376,1.317.4,1.781.8.476-.121,1.075.671,1.376.334-.246.381,1.015.9,1.546.922-.205.053.315.309.063.4.494.235,1,.369,1.009.119.718.93,2.062.422,2.384,1.259a28.193,28.193,0,0,0,4.8.523c-.1.467-1.668-.168-1.681.3,1.49.062,2.338-.275,3.753-.156.371.058-.207.2-.336.277a16.2,16.2,0,0,0,4.041-.57c0,.042-.123.111-.247.168.247-.059.6-.038.526-.235l-.232.1c-.44-.208.846-.81.839-.982-.265.685,1.233-.174.783.716.15-.084.324-.236.248-.356.246-.031.347.023.15.243.841-.366.455-.5,1.227-.751.032.093-.109.184-.15.322a2.81,2.81,0,0,1,1.3-.847c-.013.071.093.112-.1.19,1.073-.53,1.574-1.334,2.728-1.861-.079.566.439-.116.7.157l.5-.469h-.325c.492-.323.764-.838,1.247-1l-.273.363.863-.637-.588.2c.389-.474-.31-.369.4-.687-.117.112.5-.3.87-.24v0a1.333,1.333,0,0,1,.826-.568c.146.068.084.413.18.459.119-.421,1.161-.508,1.419-.905a.268.268,0,0,0-.01.321l.167-.289c.272.031.314.063.3.224.759-.086-.324-.447.622-.366-.07.028-.031.062-.176.115a10.573,10.573,0,0,1,2.648-.046c.209.391-.75.027-.49.369a11.009,11.009,0,0,1,3.747.379l-.207-.1c.319-.466.8.514,1.457.48-.156-.014-.284.211-.226.169a18.8,18.8,0,0,0,2.919.789l-.2.067c.42.3,1.2.56,1.684.822.2-.065.483.07.38-.184,1.294,1.359,3.149.75,4.4,1.778-.174-.049-.448-.008-.309.033.424.085.852.154,1.279.221-.042-.247-.13-.175-.344-.42a1.554,1.554,0,0,1,.871-.03c-.592.012-.085.362.131.547-.025-.078.077-.136.072-.211.567.541.208-.423,1.04.027l-.071.11a4.288,4.288,0,0,1,1.038-.009c.11.288-.377.067-.438.28.522.072,1.081-.345,1.511-.028-.226.046-.54.009-.769.053a1.486,1.486,0,0,0,.915.4l-.037-.011c.291.072.582.154.878.218l-.222-.1c.7-.654,1.346-.044,2.22-.527-.84.448-.137.252-.195.556.228.08.581.167.485.254.41-.273.728.163,1.3-.263.038.094.455-.038.39.215.543-.16-.153-.146-.121-.281.775-.431,2.072.078,3.132-.737.94-.514,1-.89,1.781-1.43.356,0-.087.435-.087.435a2.283,2.283,0,0,0,1.258-.637c-.046.121.081.137.269.155.331-.236.043-.444.565-.6a1.337,1.337,0,0,1-.131.543,14.117,14.117,0,0,0,.978-1.116c.207.052-.073.392-.158.578.42-.382,1.044-1.028.978-1.344l-.323.163c.138-.142.23.1.151.241-.227.472-.592.359-.668.3l.231-.264c-.619-.222-1.027.909-1.666,1.239l.026-.506c-.134.221-.274.443-.428.653-.185-.022-.382-.18-.121-.393-.521.045-.3.346-.779.318-.057-.013-.047-.04-.017-.072l-.369.313c.047-.119-.191-.234.091-.3-.84.13-1.125.809-1.532.618l.057-.048c-1.057.495,0,.327-.749.934-.262-.186-.519-.385-.765-.581l-.039.325c-.118.022-.357.044-.34-.083-.394.292.1.114-.112.359-.616-.139-1.58.381-1.762-.093-.186.252.571.12-.032.345-.219-.5-.711.15-1.259-.073.156-.269.654-.155.122-.371-.306.47-1.021-.084-1.455-.014-.035.362-.97.108-1.724.138.059-.11-1.37-.373-2.018-.654l.032-.056c-.2.334-.894.121-1.42.064.073-.209.185-.271.481-.3L151.5,5.35a.866.866,0,0,1-.622.066l.19-.233a6.11,6.11,0,0,1-2.1-.483c-.13.227.422.89-.492.766.012-.142.057-.377.3-.354a.735.735,0,0,1-.425-.087l.414-.1c-.332-.222-.253.119-.539,0,.07-.183-.169-.208-.075-.342.079.01.226.165.363.131a1.664,1.664,0,0,1-.748-.587c-.01.115-.092.251-.339.186-.619-.221-.126-.3-.445-.533-.2.072-.537-.218-.656.053-.179-.073-.161-.214-.2-.315-.365-.005-1.5-.566-1.258-.129l.074.052-.057-.009h0c-1.152-.151-2.114-1.033-3.227-1.29l.034-.093a7.865,7.865,0,0,0-1.975-.339c-.189-.058-.407-.3-.294-.392a2.841,2.841,0,0,1-1.311-.276c.554-.066-.148-.189.558-.016C138.015.807,137.883.6,137.1.772c.287-.214-.482-.4-.829-.326.161.073.321.136.475.217a7.19,7.19,0,0,1-1.027-.078l.193-.322A3.078,3.078,0,0,0,133.9.45a2.861,2.861,0,0,1-1.756.281c-.306.332.817-.068.55.293-.637.123-1.479-.085-1.68.018-.94.224-.577.8-1.445,1.145.166.044.409.258-.107.7-.554.3-.927,0-.638-.3.125-.091.207-.1.223-.061.154-.146.362-.334.076-.309l-.01.145c-.34.065-1.066.56-1,.285-.335.36-.063.275.268.13-.776.306-1.051.7-1.788,1.05.142-.015.318.037.211.106-1.071.512-.311.477-.972.93-.483.063-.076-.452-.691.065-.476.126-.233-.23-.118-.406-.515.538-1.239.46-1.618.564l.3-.228a2.066,2.066,0,0,1-.513.272l.285.139c-.217.045-.387.115-.419.022-.153.229.309.3-.038.667-.321-.018-.815.429-1.01.153.909-.2-.192-.265.521-.567a1.284,1.284,0,0,1-.517.176c-.041-.023.009-.072.059-.109-.91-.02-.272.464-1.16.7.069-.2-.285-.279-.419-.209.354-.079.242.247-.062.458-.6,0-.611.22-.92.266l.362,0c-.087.192-.386.231-.793.346-.054-.127.361-.15.205-.188-.422.37-1.073-.172-1.688.066-.3-.1-.049-.331-.309-.395-.7.248-.764-.21-1.5-.043.2.247.249.19-.289.4q.623-.046,1.234-.15c-.26.114-.525.248-.795.347.378.018.794-.155,1.018-.112-.375.2-.341.139-.154.335-.52-.341-1.038.207-1.636-.064l.056-.589c-.842-.334-1.593.17-2.7-.222l.341.177c-.2.19-.71-.1-1.091-.117.083-.182-.124-.312-.242-.472-.027.158-.79-.247-1.014.085-.136-.139-.27-.267-.4-.412-.826-.434-1.209.126-2.03-.314.341-.082.02-.375.641-.27-.277-.118-.512-.274-.573-.15-.11-.185-.887-.118-1.063-.415-.156.021-.284.19-.592.022-.016-.053.044-.087.044-.087-.044.087-.551-.122-.371.209-.594-.981-2.44-1.138-3.018-1.952-.674-.208-1.485-.453-2.106-.622.057-.045.031-.093.142-.039-.812-.424-.67.373-1.591-.038-.443-.424.558-.054.268-.241-.014-.674-1.227-.169-1.9-.541l.175-.03a1.426,1.426,0,0,0-.99.027c-.38.092-.781.236-1.221.3,0,0,.033-.064-.012-.1-.557.4-1.575.847-2.26,1.285.121-.337.281-.28.033-.449-.319.193.26.329-.352.709-.271-.021-.785.128-.984-.071.2-.121.4-.241.6-.351-.495-.151-.788.452-1.122.588L91.8,3.139c-.868.611-.652.948-1.571,1.552l.161.032c-.266.662-.536.109-.856.686l-.372-.223a10.412,10.412,0,0,1-1.474,1.492,10.473,10.473,0,0,1,1.1-1.431c-.317.217-1.054.732-1.126.99.112-.108.222-.292.381-.321A2.656,2.656,0,0,1,86.665,7.2c-.184-.7-1.887.6-2.591.159-1.174.629-2.523.467-4.007.586.569.584-.442.026-.331.635-.362.047-.5.041-.534,0-.367-.11-.728-.267-1.082-.4-.245-.188.345-.121.318-.259-.768-.083-.311-.262-.8-.465.086.229-.292.285-.719.158l.589.343c-1.124.217-.868-.6-1.985-.454l.371-.135c-.574.052-2-.406-2.661-.093-.079-.095-.158-.29.092-.267-1.255-.421-3.035-.46-3.874-1.2l.156-.094c-.248-.059-.521.072-.737-.209.042-.048.157-.088.057-.148a1.948,1.948,0,0,1-.977-.3l.335-.012c-1.08-.8-2.02-.664-3.1-1.131.219-.386-.706-1.039-1.206-1.346l.045-.048a8.759,8.759,0,0,0-4.59-.744A3.869,3.869,0,0,0,57.018,1.7a22.867,22.867,0,0,0-2.681.928c.258-.045.124.318-.09.5-.371.1-.7.776-.863.4l.114-.061c-.442-.195-1.011.3-1.476.585l.21.493A5.4,5.4,0,0,0,50,5.592c-.672.432-1.347.748-1.788.525-.269.209-.652.315-.942.5l-.039-.281c-.878.1-1.315.1-2.415.206l.221-.2c-.61-.019-.793.823-1.4.8l-.151-.431c-1.127-.076-2.166-.63-3.337-.521a.247.247,0,0,1,.275-.144c-.521-.115-1.9-.812-1.888-.208.1-.358-1.107-.4-1.756-.465l.189-.228a2.008,2.008,0,0,1-1.4.045c-.15-.1-.059-.265.131-.11-.489-.358-.526.073-1.13-.345l.315-.059a1.031,1.031,0,0,0-.935-.094c-.4-.05-1.034-.532-1.014-.8a.781.781,0,0,1-.828-.056c-.006-.107.138-.107.21-.106-.859-.593-1.527-.328-2.066-.864a.2.2,0,0,0-.044-.2,12.574,12.574,0,0,1,1.281.612c.1-.234-.481-.545.144-.655a4.843,4.843,0,0,1-2.119-.388.317.317,0,0,1-.044-.115h.073a.829.829,0,0,0-.4-.121,2.424,2.424,0,0,0-.471-.278c.007-.225-.672-.4-.987-.525-.075.272-.469.074-.167.437-.043-.037.071-.009.283.06a.663.663,0,0,0,.144.024l-.03.015.777.292a.964.964,0,0,1-.883-.238c-.226.107-.468.213-.6.257C26.932,1.4,26.163.909,26.119.644c-1.03-.188-2.382-.612-3.147-.22-.305.01-.312-.212-.413-.312.185-.026.39.022.5-.033-.6-.024-1.888-.164-2.017.251-.826-.072.436-.417-.7-.182L20.476,0a2.4,2.4,0,0,0-1.6.5,3.985,3.985,0,0,0-.932,1.077,3.634,3.634,0,0,1-1.916,1.873c.134-.056.2-.085.263-.057A23.044,23.044,0,0,1,13.2,5.14a6.459,6.459,0,0,1-3.489.518c-.651-.1-.714.163-1.128.312l-.128-.311-.714.3c-1.047.1-1.523-.965-2.784-.925l.08.245c-.416-.156-1.352-.444-1.182-.621-.056.014-.227.126-.336-.043l.062-.145L2.507,4.14c-.61-.6.454-.441-.463-1.173C1.7,2.729.816,2.433.855,2.619c.128.132.273.4.174.52L.658,2.9C.275,3.174-.368,3.218.27,4.28a5.217,5.217,0,0,0,.808.323l.072.338C.963,4.8.771,4.67.59,4.523c.171.414.5.42.8.485a.542.542,0,0,0,.134.413c.312.029.625.038.925.049-.007.208-.5.121-.079.492.425.015-.1-.539.49-.34.24.36.071.463.56.5.007.136-.112.164-.3.132.429.06,1.017.4,1.307.225a1.587,1.587,0,0,0,.744.384c.276.078.492.162.418.37a3.779,3.779,0,0,1,1.142-.123c-.763.418,1.366.249,1.139.75.545-.421,1.867-.111,2.738-.5-.045.042-.135.129-.216.114a4.463,4.463,0,0,1,1.012.151c0-.4.754-.634,1.088-.972.684.189-.238.552.03.844-.1-.288.962-.62.678-.807.523.083.423-.006.764.2-.1-.489.387-.25.63-.678.724-.07.363.339.974-.15.4-.046-.131.439-.131.439M28.992,3.784l0,.005-.315-.116.317.111m1.259.545c-.149-.078-.338-.164-.541-.251,0-.108.083-.179.207-.118-.094.029.18.211.334.369M28.31,1.389c.222.046.271.126.278.19-.1-.034-.218-.072-.375-.114l-.037.022a.355.355,0,0,1,.134-.1" fill="#ff2020"/>
        <path id="Path_3045" data-name="Path 3045" d="M27.8,1.584a.513.513,0,0,1-.093-.014,1.04,1.04,0,0,0,.1.107l.105-.054L27.8,1.584" fill="#ff2020"/>
        <path id="Path_3046" data-name="Path 3046" d="M144.866,3.383l-.025-.017a.164.164,0,0,1,.042.06.189.189,0,0,1-.017-.043" fill="#ff2020"/>
        <path id="Path_3047" data-name="Path 3047" d="M49.214,8.456l-.024-.067-.108.1Z" fill="#ff2020"/>
        <path id="Path_3048" data-name="Path 3048" d="M151.781,6.737a.191.191,0,0,0,.083.092c0-.019-.037-.053-.083-.092" fill="#ff2020"/>
        <path id="Path_3049" data-name="Path 3049" d="M155.079,7.357l.467.143a3.658,3.658,0,0,0-.467-.143" fill="#ff2020"/>
        <path id="Path_3050" data-name="Path 3050" d="M157.674,7.615a.347.347,0,0,0,.049-.121l-.005,0Z" fill="#ff2020"/>
        <path id="Path_3051" data-name="Path 3051" d="M120,8.65a.69.69,0,0,0-.1.03c-.229.1-.071.046.1-.03" fill="#ff2020"/>
        <path id="Path_3052" data-name="Path 3052" d="M130.714,2.875a2.655,2.655,0,0,1-.261.3c.19-.08.331-.152.261-.3" fill="#ff2020"/>
        <path id="Path_3053" data-name="Path 3053" d="M106.279,6.734l0,0-.075-.036Z" fill="#ff2020"/>
        <path id="Path_3054" data-name="Path 3054" d="M129.986,3.441a1.068,1.068,0,0,0,.466-.271,1.5,1.5,0,0,0-.466.271" fill="#ff2020"/>
        <path id="Path_3055" data-name="Path 3055" d="M168.358,3.976l.1-.079a.056.056,0,0,1-.018-.044Z" fill="#ff2020"/>
        <path id="Path_3056" data-name="Path 3056" d="M168.444,3.853l.085-.122c-.049.045-.09.085-.085.122" fill="#ff2020"/>
        <path id="Path_3057" data-name="Path 3057" d="M168.705,3.476l-.176.255c.078-.07.18-.151.176-.255" fill="#ff2020"/>
        <path id="Path_3058" data-name="Path 3058" d="M165.338,5.815l.009.109a.148.148,0,0,0-.009-.109" fill="#ff2020"/>
        <path id="Path_3059" data-name="Path 3059" d="M164.381,6.286a2.709,2.709,0,0,0,.973-.275l-.006-.087c-.089.211-.812.123-.967.362" fill="#ff2020"/>
        <path id="Path_3060" data-name="Path 3060" d="M159.934,6.211c.275-.016.554-.023.83-.057-.164-.078-.371-.185-.013-.284-1.07-.135.257.215-.817.341" fill="#ff2020"/>
        <path id="Path_3061" data-name="Path 3061" d="M157.371,6.229c.442-.057-.006-.157.018-.219-.278.094-.349.118-.018.219" fill="#ff2020"/>
        <path id="Path_3062" data-name="Path 3062" d="M139.254,1.169l.11-.236c-.366-.052-.028.095-.11.236" fill="#ff2020"/>
        <path id="Path_3063" data-name="Path 3063" d="M135.487,1.955a3.2,3.2,0,0,1,.317.166l.164-.225a4.326,4.326,0,0,0-.481.059" fill="#ff2020"/>
        <path id="Path_3064" data-name="Path 3064" d="M133.132.349l.163-.068c-.211.073-.421.138-.625.219.151-.058.307-.1.462-.151" fill="#ff2020"/>
        <path id="Path_3065" data-name="Path 3065" d="M103.976,2.893l-.03.331c.244.049.442-.253.03-.331" fill="#ff2020"/>
        <path id="Path_3066" data-name="Path 3066" d="M90.226,4.475a.7.7,0,0,0-.7.363,4.775,4.775,0,0,0,.7-.363" fill="#ff2020"/>
        <path id="Path_3067" data-name="Path 3067" d="M51.444,4.575l.172-.235-.382.344Z" fill="#ff2020"/>
      </g>
    </g>
    <circle id="Ellipse_1" data-name="Ellipse 1" cx="4" cy="4" r="4" transform="translate(38 291)" fill="#6d6d6d"/>
    <circle id="Ellipse_2" data-name="Ellipse 2" cx="4" cy="4" r="4" transform="translate(80 291)" fill="#6d6d6d"/>
  </g>
</svg>
