<svg xmlns="http://www.w3.org/2000/svg" xmlns:xlink="http://www.w3.org/1999/xlink" width="334" height="373.185" viewBox="0 0 334 373.185">
  <defs>
    <clipPath id="clip-path">
      <rect id="Rectangle_26880" data-name="Rectangle 26880" width="287" height="306.185" fill="none"/>
    </clipPath>
    <clipPath id="clip-path-2">
      <rect id="Rectangle_26854" data-name="Rectangle 26854" width="286.998" height="306.185" fill="none"/>
    </clipPath>
    <clipPath id="clip-path-3">
      <rect id="Rectangle_26853" data-name="Rectangle 26853" width="157.303" height="79.396" fill="none"/>
    </clipPath>
    <clipPath id="clip-path-5">
      <rect id="Rectangle_26855" data-name="Rectangle 26855" width="127.64" height="74.085" fill="none"/>
    </clipPath>
    <clipPath id="clip-path-6">
      <rect id="Rectangle_26856" data-name="Rectangle 26856" width="119.343" height="69.27" fill="none"/>
    </clipPath>
    <clipPath id="clip-path-8">
      <rect id="Rectangle_26858" data-name="Rectangle 26858" width="68.403" height="49.262" fill="none"/>
    </clipPath>
    <clipPath id="clip-path-9">
      <rect id="Rectangle_26859" data-name="Rectangle 26859" width="45.743" height="36.364" fill="none"/>
    </clipPath>
    <clipPath id="clip-path-10">
      <rect id="Rectangle_26860" data-name="Rectangle 26860" width="2.318" height="12.245" fill="none"/>
    </clipPath>
    <clipPath id="clip-path-11">
      <rect id="Rectangle_26861" data-name="Rectangle 26861" width="0.59" height="12.24" fill="none"/>
    </clipPath>
    <clipPath id="clip-path-12">
      <rect id="Rectangle_26862" data-name="Rectangle 26862" width="119.343" height="69.271" fill="none"/>
    </clipPath>
    <clipPath id="clip-path-14">
      <rect id="Rectangle_26864" data-name="Rectangle 26864" width="121.799" height="42.32" fill="none"/>
    </clipPath>
    <clipPath id="clip-path-15">
      <rect id="Rectangle_26865" data-name="Rectangle 26865" width="12.547" height="100.248" fill="none"/>
    </clipPath>
    <clipPath id="clip-path-16">
      <rect id="Rectangle_26866" data-name="Rectangle 26866" width="67.008" height="38.017" fill="none"/>
    </clipPath>
    <clipPath id="clip-path-17">
      <rect id="Rectangle_26867" data-name="Rectangle 26867" width="22.611" height="85.307" fill="none"/>
    </clipPath>
    <clipPath id="clip-path-18">
      <rect id="Rectangle_26868" data-name="Rectangle 26868" width="85.196" height="131.813" fill="none"/>
    </clipPath>
    <clipPath id="clip-path-20">
      <rect id="Rectangle_26870" data-name="Rectangle 26870" width="56.53" height="128.821" fill="none"/>
    </clipPath>
    <clipPath id="clip-path-21">
      <rect id="Rectangle_26871" data-name="Rectangle 26871" width="12.183" height="2.998" fill="none"/>
    </clipPath>
    <clipPath id="clip-path-22">
      <rect id="Rectangle_26872" data-name="Rectangle 26872" width="85.579" height="132.12" fill="none"/>
    </clipPath>
    <clipPath id="clip-path-25">
      <rect id="Rectangle_26875" data-name="Rectangle 26875" width="33.413" height="100.637" fill="none"/>
    </clipPath>
    <clipPath id="clip-path-26">
      <rect id="Rectangle_26876" data-name="Rectangle 26876" width="54.321" height="31.483" fill="none"/>
    </clipPath>
    <clipPath id="clip-path-27">
      <rect id="Rectangle_26877" data-name="Rectangle 26877" width="12.183" height="1.142" fill="none"/>
    </clipPath>
    <clipPath id="clip-path-28">
      <rect id="Rectangle_26878" data-name="Rectangle 26878" width="25.903" height="15.085" fill="none"/>
    </clipPath>
  </defs>
  <g id="Group_25749" data-name="Group 25749" transform="translate(-30 -493.815)">
    <path id="Rectangle_26842" data-name="Rectangle 26842" d="M100,0H234A100,100,0,0,1,334,100V350a0,0,0,0,1,0,0H0a0,0,0,0,1,0,0V100A100,100,0,0,1,100,0Z" transform="translate(30 517)" fill="#dbdbdb"/>
    <g id="Group_25434" data-name="Group 25434" transform="translate(53 493.815)">
      <g id="Group_25433" data-name="Group 25433" clip-path="url(#clip-path)">
        <g id="Group_25358" data-name="Group 25358">
          <g id="Group_25357" data-name="Group 25357" clip-path="url(#clip-path-2)">
            <g id="Group_25356" data-name="Group 25356" transform="translate(64.615 226.789)" opacity="0.2" style="mix-blend-mode: normal;isolation: isolate">
              <g id="Group_25355" data-name="Group 25355">
                <g id="Group_25354" data-name="Group 25354" clip-path="url(#clip-path-3)">
                  <path id="Path_5252" data-name="Path 5252" d="M175.284,103.435c13.86,20.533-8.265,43.395-49.419,51.067S40.11,151.744,26.25,131.211s8.265-43.395,49.419-51.067,85.755,2.758,99.615,23.291" transform="translate(-22.116 -77.625)"/>
                </g>
              </g>
            </g>
          </g>
        </g>
        <path id="Path_5253" data-name="Path 5253" d="M55.531,87.026l-.4-2.279L51.92,84.4,51.592,86.7l.906,1.823h3.395Z" transform="translate(99.14 162.176)" fill="#3c495b"/>
        <path id="Path_5254" data-name="Path 5254" d="M72.22,83.91,48.771,97.645l9.387,5.478L81.61,89.388Z" transform="translate(93.72 161.243)" fill="#3c495b"/>
        <path id="Path_5255" data-name="Path 5255" d="M72.22,82.521,48.771,96.256l9.387,5.478L81.61,88Z" transform="translate(93.72 158.574)" fill="#3c495b"/>
        <g id="Group_25432" data-name="Group 25432">
          <g id="Group_25431" data-name="Group 25431" clip-path="url(#clip-path-2)">
            <path id="Path_5256" data-name="Path 5256" d="M71.405,86.3l-6.8-3.959-7.8,4.572,9.39,5.475L74,87.815c0-1.493-1.169-1.75-2.6-1.51" transform="translate(109.142 158.237)" fill="#3c495b"/>
            <path id="Path_5257" data-name="Path 5257" d="M64.608,83.394c0-3.871-7.815.52-7.815.52l9.4,5.472a20.322,20.322,0,0,1,5.218-2.033Z" transform="translate(109.134 157.186)" fill="#657082"/>
            <path id="Path_5258" data-name="Path 5258" d="M58.171,89.245A25.652,25.652,0,0,0,81.619,88l-9.4-5.475a25.657,25.657,0,0,1-23.449,1.245Z" transform="translate(93.709 158.575)" fill="#657082"/>
            <path id="Path_5259" data-name="Path 5259" d="M68.438,87.248,59.264,81.9v1.829l7.4,3.445a3.819,3.819,0,0,1,1.771.079" transform="translate(113.882 157.372)" fill="#657082"/>
            <path id="Path_5260" data-name="Path 5260" d="M44.95,86.679,50.1,84.059v2.4l-1.735,3.211Z" transform="translate(86.377 161.528)" fill="#3c495b"/>
            <path id="Path_5261" data-name="Path 5261" d="M34.979,86.191l7.535-4.482-.4,1.131-5.972,3a3.051,3.051,0,0,0-1.166.348" transform="translate(67.216 157.013)" fill="#657082"/>
            <path id="Path_5262" data-name="Path 5262" d="M42.511,81.959l-7.83,4.6,9.887,5.758,7.83-4.6Z" transform="translate(66.644 157.492)" fill="#3c495b"/>
            <path id="Path_5263" data-name="Path 5263" d="M34.681,84.324l2.036-1.2c-1.7.155-2.036,1.2-2.036,1.2" transform="translate(66.643 159.73)" fill="#3c495b"/>
            <path id="Path_5264" data-name="Path 5264" d="M69.344,97.585,45.895,83.93l-7.83,4.6,23.449,13.656Z" transform="translate(73.146 161.28)" fill="#3c495b"/>
            <path id="Path_5265" data-name="Path 5265" d="M69.344,96.126,45.895,82.471l-7.83,4.6,23.449,13.656Z" transform="translate(73.146 158.476)" fill="#3c495b"/>
            <path id="Path_5266" data-name="Path 5266" d="M69.344,83.827s-7.286,8.14-23.449-1.356l-7.83,4.616c16.162,9.5,23.449,1.359,23.449,1.359Z" transform="translate(73.146 158.477)" fill="#657082"/>
            <path id="Path_5267" data-name="Path 5267" d="M41.174,82.761l-5.8,3.418c1.435-.131,3.833.377,7.85,2.708l7.833-4.616c-8.779-5.1-9.887-1.51-9.887-1.51" transform="translate(67.983 156.677)" fill="#657082"/>
            <path id="Path_5268" data-name="Path 5268" d="M54.11,31.716H46.385v170.5s.841,4.026,8.181,4.026,8.178-4.026,8.178-4.026V31.716Z" transform="translate(89.134 60.946)" fill="#9fa9bf"/>
            <path id="Path_5269" data-name="Path 5269" d="M61.514,90.179l9.4,5.478L47.47,109.391l-9.4-5.478Z" transform="translate(73.146 173.288)" fill="#657082"/>
            <path id="Path_5270" data-name="Path 5270" d="M61.514,88.725l9.4,5.478L47.47,107.937l-9.4-5.478Z" transform="translate(73.146 170.494)" fill="#657082"/>
            <line id="Line_26" data-name="Line 26" y1="4.248" transform="translate(156.475 257.432)" fill="none" stroke="#000" stroke-width="0.25"/>
            <path id="Path_5271" data-name="Path 5271" d="M46.091,101.061V84.516l9.4,5.475v16.548Z" transform="translate(88.568 162.406)" fill="#657082"/>
            <path id="Path_5272" data-name="Path 5272" d="M70.918,89.993s-1.642,11.523-23.449,26.032l-9.4-5.475c21.8-14.512,23.449-26.034,23.449-26.034Z" transform="translate(73.146 162.405)" fill="#9fa9bf"/>
            <path id="Path_5273" data-name="Path 5273" d="M44.789,107.742l7.821-4.59V98.915l-9.4-5.49v4.248l-7.815,4.578Z" transform="translate(68.006 179.528)" fill="#657082"/>
            <path id="Path_5274" data-name="Path 5274" d="M49.31,89.4l7.815-4.581V101.37l-7.815,4.578Z" transform="translate(94.755 162.995)" fill="#657082"/>
            <path id="Path_5275" data-name="Path 5275" d="M80.574,102.723,57.126,89.1,49.31,93.488l23.449,13.623Z" transform="translate(94.755 171.209)" fill="#657082"/>
            <path id="Path_5276" data-name="Path 5276" d="M49.31,89.4s3,14.024,23.449,25.923l7.815-4.391C60.12,99.039,57.125,84.822,57.125,84.822Z" transform="translate(94.755 162.995)" fill="#9fa9bf"/>
            <path id="Path_5277" data-name="Path 5277" d="M43.205,93.426s-7.815,3.652-7.815,8.826l9.4,5.49c0-5.177,7.815-8.826,7.815-8.826Z" transform="translate(68.006 179.528)" fill="#9fa9bf"/>
            <path id="Path_5278" data-name="Path 5278" d="M46.091,91.351a55.771,55.771,0,0,0,.862-10.392V92.552Z" transform="translate(88.569 155.572)" fill="#9fa9bf"/>
            <path id="Path_5279" data-name="Path 5279" d="M47.421,97.462l.129-.105a8.29,8.29,0,0,1,10.69.105l-5.3-11.485Z" transform="translate(91.125 165.214)" fill="#9fa9bf"/>
            <path id="Path_5280" data-name="Path 5280" d="M47.421,100.645h0a10.961,10.961,0,0,1,11.047-.02l.035.02L52.94,89.265Z" transform="translate(91.125 171.532)" fill="#657082"/>
            <path id="Path_5281" data-name="Path 5281" d="M49.31,90.6v4.248l23.449,13.626v-4.248Z" transform="translate(94.755 174.097)" fill="#657082"/>
            <path id="Path_5282" data-name="Path 5282" d="M57.336,102.4l9.878,5.785,7.815-4.391-9.878-5.975V93.761l-7.815,4.388Z" transform="translate(110.178 180.172)" fill="#657082"/>
            <path id="Path_5283" data-name="Path 5283" d="M57.336,98.149s9.878,3.1,9.878,10.033l7.815-4.388c0-6.93-9.878-10.033-9.878-10.033Z" transform="translate(110.177 180.172)" fill="#9fa9bf"/>
            <path id="Path_5284" data-name="Path 5284" d="M279.457,57.661c25.289,37.461-15.078,79.176-90.167,93.17S32.833,145.8,7.543,108.339,22.622,29.164,97.71,15.169,254.168,20.2,279.457,57.661" transform="translate(0 20.314)" fill="#ced3e0"/>
            <path id="Path_5285" data-name="Path 5285" d="M279.457,54.015c25.289,37.461-15.078,79.176-90.167,93.17S32.833,142.154,7.543,104.693,22.622,25.518,97.71,11.523s156.458,5.031,181.747,42.492" transform="translate(0 13.308)" fill="#fff"/>
            <g id="Group_25361" data-name="Group 25361" transform="translate(67.999 13.331)" opacity="0.2" style="mix-blend-mode: normal;isolation: isolate">
              <g id="Group_25360" data-name="Group 25360">
                <g id="Group_25359" data-name="Group 25359" clip-path="url(#clip-path-5)">
                  <path id="Path_5286" data-name="Path 5286" d="M150.914,48.808l-51.4,29.841L23.275,34.588,75.192,4.563Z" transform="translate(-23.274 -4.563)"/>
                </g>
              </g>
            </g>
            <g id="Group_25364" data-name="Group 25364" transform="translate(72.926 16.438)" style="mix-blend-mode: normal;isolation: isolate">
              <g id="Group_25363" data-name="Group 25363">
                <g id="Group_25362" data-name="Group 25362" clip-path="url(#clip-path-6)">
                  <path id="Path_5287" data-name="Path 5287" d="M144.3,47,96.243,74.9,24.961,33.7,73.5,5.626Z" transform="translate(-24.96 -5.626)" fill="#df5f39"/>
                </g>
              </g>
            </g>
            <g id="Group_25367" data-name="Group 25367" transform="translate(72.926 15.738)" style="mix-blend-mode: normal;isolation: isolate">
              <g id="Group_25366" data-name="Group 25366">
                <g id="Group_25365" data-name="Group 25365" clip-path="url(#clip-path-6)">
                  <path id="Path_5288" data-name="Path 5288" d="M144.3,46.757l-48.06,27.9L24.961,33.463,73.5,5.387Z" transform="translate(-24.96 -5.387)" fill="#cc563b"/>
                </g>
              </g>
            </g>
            <g id="Group_25370" data-name="Group 25370" transform="translate(75.805 33.932)" style="mix-blend-mode: normal;isolation: isolate">
              <g id="Group_25369" data-name="Group 25369">
                <g id="Group_25368" data-name="Group 25368" clip-path="url(#clip-path-8)">
                  <path id="Path_5289" data-name="Path 5289" d="M25.946,11.614v9.925l68.4,39.337V51.146Z" transform="translate(-25.946 -11.614)" fill="#f4ebe2"/>
                </g>
              </g>
            </g>
            <g id="Group_25373" data-name="Group 25373" transform="translate(144.208 46.83)" style="mix-blend-mode: normal;isolation: isolate">
              <g id="Group_25372" data-name="Group 25372">
                <g id="Group_25371" data-name="Group 25371" clip-path="url(#clip-path-9)">
                  <path id="Path_5290" data-name="Path 5290" d="M49.359,52.392,95.1,25.825v-9.8L49.359,42.663Z" transform="translate(-49.359 -16.028)" fill="#f4ebe2"/>
                </g>
              </g>
            </g>
            <g id="Group_25376" data-name="Group 25376" transform="translate(189.951 45.563)" style="mix-blend-mode: normal;isolation: isolate">
              <g id="Group_25375" data-name="Group 25375">
                <g id="Group_25374" data-name="Group 25374" clip-path="url(#clip-path-10)">
                  <path id="Path_5291" data-name="Path 5291" d="M67.333,15.6V27.84l-2.317-1.18v-9.8Z" transform="translate(-65.015 -15.595)" fill="#8e3c2c"/>
                </g>
              </g>
            </g>
            <path id="Path_5292" data-name="Path 5292" d="M24.961,15v.7l1-.123Z" transform="translate(47.965 28.817)" fill="#df5f39"/>
            <g id="Group_25379" data-name="Group 25379" transform="translate(191.679 45.563)" style="mix-blend-mode: normal;isolation: isolate">
              <g id="Group_25378" data-name="Group 25378">
                <g id="Group_25377" data-name="Group 25377" clip-path="url(#clip-path-11)">
                  <path id="Path_5293" data-name="Path 5293" d="M65.607,27.539V15.914l.59-.318V27.834Z" transform="translate(-65.607 -15.595)" fill="#df5f39"/>
                </g>
              </g>
            </g>
            <g id="Group_25382" data-name="Group 25382" transform="translate(72.926 4.193)" style="mix-blend-mode: normal;isolation: isolate">
              <g id="Group_25381" data-name="Group 25381">
                <g id="Group_25380" data-name="Group 25380" clip-path="url(#clip-path-12)">
                  <path id="Path_5294" data-name="Path 5294" d="M144.3,41.952l-.733.424L73.5,1.435,25.809,29.021l-.847-.362v.853L96.243,70.707l48.06-27.9-.009-.006.009.006Z" transform="translate(-24.96 -1.435)" fill="#df5f39"/>
                </g>
              </g>
            </g>
            <g id="Group_25385" data-name="Group 25385" transform="translate(72.926 3.339)" style="mix-blend-mode: normal;isolation: isolate">
              <g id="Group_25384" data-name="Group 25384">
                <g id="Group_25383" data-name="Group 25383" clip-path="url(#clip-path-12)">
                  <path id="Path_5295" data-name="Path 5295" d="M24.961,29.22,96.242,70.414l48.06-27.9L73.5,1.143Z" transform="translate(-24.961 -1.143)" fill="#e26f54"/>
                </g>
              </g>
            </g>
            <g id="Group_25388" data-name="Group 25388" transform="translate(95.572 107.037)" opacity="0.2" style="mix-blend-mode: normal;isolation: isolate">
              <g id="Group_25387" data-name="Group 25387">
                <g id="Group_25386" data-name="Group 25386" clip-path="url(#clip-path-14)">
                  <path id="Path_5296" data-name="Path 5296" d="M154.511,60.6l-15.338,8.829-43.4,6.9-10.9,2.629L32.712,48.907,60.058,46.83l44.116-10.193L148.8,55.4Z" transform="translate(-32.712 -36.636)"/>
                </g>
              </g>
            </g>
            <path id="Path_5297" data-name="Path 5297" d="M69.654,18.349v88.49l5.814-1.9,5.385,3.088,1.35-.716V11.685Z" transform="translate(133.848 22.454)" fill="#aa434f"/>
            <g id="Group_25391" data-name="Group 25391" transform="translate(200.975 35.052)" style="mix-blend-mode: normal;isolation: isolate">
              <g id="Group_25390" data-name="Group 25390">
                <g id="Group_25389" data-name="Group 25389" clip-path="url(#clip-path-15)">
                  <path id="Path_5298" data-name="Path 5298" d="M81.337,105.58V12L68.789,18.662v93.582Z" transform="translate(-68.79 -11.997)" fill="#f4ebe2"/>
                </g>
              </g>
            </g>
            <path id="Path_5299" data-name="Path 5299" d="M108.8,40.809,49.284,6.67,61.829,0l59.516,34.136Z" transform="translate(94.704 0.001)" fill="#ff5764"/>
            <g id="Group_25394" data-name="Group 25394" transform="translate(146.514 2.793)" style="mix-blend-mode: normal;isolation: isolate">
              <g id="Group_25393" data-name="Group 25393">
                <g id="Group_25392" data-name="Group 25392" clip-path="url(#clip-path-16)">
                  <path id="Path_5300" data-name="Path 5300" d="M50.148,6.285l56.986,32.687,10.021-5.326L60.17.956Z" transform="translate(-50.148 -0.956)" fill="#f4ebe2"/>
                </g>
              </g>
            </g>
            <path id="Path_5301" data-name="Path 5301" d="M50.25,2.283l-1.47.909,59.513,34.139,1.47-.909Z" transform="translate(93.737 4.387)" fill="#ff5764"/>
            <path id="Path_5302" data-name="Path 5302" d="M69.15,14.877v95.616l1.47-.906V13.968Z" transform="translate(132.88 26.841)" fill="#ff5764"/>
            <path id="Path_5303" data-name="Path 5303" d="M73.5,12.389v95.651l1.323-.73V11.685Z" transform="translate(141.229 22.454)" fill="#ff929f"/>
            <path id="Path_5304" data-name="Path 5304" d="M54.782.739l56.986,32.687-1.2.637L53.578,1.376Z" transform="translate(102.956 1.419)" fill="#aa434f"/>
            <path id="Path_5305" data-name="Path 5305" d="M108.294,132.351V36.735L48.78,2.593V98.212Z" transform="translate(93.737 4.983)" fill="#ffb3bc"/>
            <path id="Path_5306" data-name="Path 5306" d="M62.22,1.15l-1.2-.625L49.707,6.371,51,7.113Z" transform="translate(95.517 1.008)" fill="#aa434f"/>
            <g id="Group_25397" data-name="Group 25397" transform="translate(167.718 45.314)" opacity="0.2" style="mix-blend-mode: normal;isolation: isolate">
              <g id="Group_25396" data-name="Group 25396">
                <g id="Group_25395" data-name="Group 25395" clip-path="url(#clip-path-17)">
                  <path id="Path_5307" data-name="Path 5307" d="M80.017,15.51v85.308L57.406,87.846Z" transform="translate(-57.406 -15.51)"/>
                </g>
              </g>
            </g>
            <g id="Group_25400" data-name="Group 25400" transform="translate(105.133 14.913)" style="mix-blend-mode: normal;isolation: isolate">
              <g id="Group_25399" data-name="Group 25399">
                <g id="Group_25398" data-name="Group 25398" clip-path="url(#clip-path-18)">
                  <path id="Path_5308" data-name="Path 5308" d="M89.482,136.918l-53.5-30.034L69.308,5.1l51.873,30.4Z" transform="translate(-35.985 -5.105)" fill="#ff7eaa"/>
                </g>
              </g>
            </g>
            <g id="Group_25403" data-name="Group 25403" transform="translate(103.623 14.913)" style="mix-blend-mode: normal;isolation: isolate">
              <g id="Group_25402" data-name="Group 25402">
                <g id="Group_25401" data-name="Group 25401" clip-path="url(#clip-path-18)">
                  <path id="Path_5309" data-name="Path 5309" d="M88.965,136.918l-53.5-30.034L68.791,5.1l51.873,30.4Z" transform="translate(-35.468 -5.105)" fill="#ff5093"/>
                </g>
              </g>
            </g>
            <g id="Group_25406" data-name="Group 25406" transform="translate(129.51 16.498)" style="mix-blend-mode: normal;isolation: isolate">
              <g id="Group_25405" data-name="Group 25405">
                <g id="Group_25404" data-name="Group 25404" clip-path="url(#clip-path-20)">
                  <path id="Path_5310" data-name="Path 5310" d="M61.814,134.467l8.23-.307,30.814-99.1L50.578,5.647H44.328L94.1,34.966Z" transform="translate(-44.328 -5.646)" fill="#f4ebe2"/>
                </g>
              </g>
            </g>
            <g id="Group_25409" data-name="Group 25409" transform="translate(125.727 14.335)" style="mix-blend-mode: normal;isolation: isolate">
              <g id="Group_25408" data-name="Group 25408">
                <g id="Group_25407" data-name="Group 25407" clip-path="url(#clip-path-21)">
                  <path id="Path_5311" data-name="Path 5311" d="M43.034,4.907,55.217,6.049,54.5,7.9l-6.436-.126Z" transform="translate(-43.034 -4.907)" fill="#e22b76"/>
                </g>
              </g>
            </g>
            <path id="Path_5312" data-name="Path 5312" d="M98.745,35.506h1.51L48.385,5.1h-1.51Z" transform="translate(90.074 9.808)" fill="#ff7bb1"/>
            <path id="Path_5313" data-name="Path 5313" d="M85.478,15.51h1.51l-31.7,101.412h-1.51Z" transform="translate(103.341 29.804)" fill="#ff7bb1"/>
            <g id="Group_25412" data-name="Group 25412" transform="translate(93.704 14.335)" style="mix-blend-mode: normal;isolation: isolate">
              <g id="Group_25411" data-name="Group 25411">
                <g id="Group_25410" data-name="Group 25410" clip-path="url(#clip-path-22)">
                  <path id="Path_5314" data-name="Path 5314" d="M85,137.027,32.073,106.687,64.094,4.906,117.65,36.39Z" transform="translate(-32.072 -4.907)" fill="#ff5093"/>
                </g>
              </g>
            </g>
            <g id="Group_25415" data-name="Group 25415" transform="translate(93.704 14.335)" style="mix-blend-mode: normal;isolation: isolate">
              <g id="Group_25414" data-name="Group 25414">
                <g id="Group_25413" data-name="Group 25413" clip-path="url(#clip-path-22)">
                  <path id="Path_5315" data-name="Path 5315" d="M85,137.027,32.073,106.687,64.094,4.906,117.65,36.39Z" transform="translate(-32.072 -4.907)" fill="#ff5093"/>
                </g>
              </g>
            </g>
            <g id="Group_25418" data-name="Group 25418" transform="translate(92.938 14.335)" style="mix-blend-mode: normal;isolation: isolate">
              <g id="Group_25417" data-name="Group 25417">
                <g id="Group_25416" data-name="Group 25416" clip-path="url(#clip-path-22)">
                  <path id="Path_5316" data-name="Path 5316" d="M84.742,137.027,31.811,106.687,63.835,4.906,117.388,36.39Z" transform="translate(-31.809 -4.907)" fill="#ff6ca8"/>
                </g>
              </g>
            </g>
            <g id="Group_25421" data-name="Group 25421" transform="translate(145.87 45.818)" style="mix-blend-mode: normal;isolation: isolate">
              <g id="Group_25420" data-name="Group 25420">
                <g id="Group_25419" data-name="Group 25419" clip-path="url(#clip-path-25)">
                  <path id="Path_5317" data-name="Path 5317" d="M82.574,15.683h.765L50.694,116.32h-.765Z" transform="translate(-49.927 -15.683)" fill="#ff5093"/>
                </g>
              </g>
            </g>
            <g id="Group_25424" data-name="Group 25424" transform="translate(124.961 14.335)" style="mix-blend-mode: normal;isolation: isolate">
              <g id="Group_25423" data-name="Group 25423">
                <g id="Group_25422" data-name="Group 25422" clip-path="url(#clip-path-26)">
                  <path id="Path_5318" data-name="Path 5318" d="M42.771,4.907h.765L97.093,36.39h-.765Z" transform="translate(-42.771 -4.907)" fill="#ff5093"/>
                </g>
              </g>
            </g>
            <g id="Group_25427" data-name="Group 25427" transform="translate(125.727 14.335)" style="mix-blend-mode: normal;isolation: isolate">
              <g id="Group_25426" data-name="Group 25426">
                <g id="Group_25425" data-name="Group 25425" clip-path="url(#clip-path-27)">
                  <path id="Path_5319" data-name="Path 5319" d="M43.034,4.907l1.011.578,11.172.564-.964-.564Z" transform="translate(-43.034 -4.907)" fill="#ff5093"/>
                </g>
              </g>
            </g>
            <path id="Path_5320" data-name="Path 5320" d="M44.268,22.774l4.607-14.2L81.513,27.755l-4.607,14.2Z" transform="translate(85.067 16.466)" fill="#ffc0e1"/>
            <g id="Group_25430" data-name="Group 25430" transform="translate(32.681 85.984)" opacity="0.2" style="mix-blend-mode: normal;isolation: isolate">
              <g id="Group_25429" data-name="Group 25429">
                <g id="Group_25428" data-name="Group 25428" clip-path="url(#clip-path-28)">
                  <path id="Path_5321" data-name="Path 5321" d="M37.089,36.974c0,4.166-5.8,7.544-12.951,7.544S11.186,41.14,11.186,36.974s5.8-7.544,12.951-7.544,12.951,3.377,12.951,7.544" transform="translate(-11.186 -29.431)"/>
                </g>
              </g>
            </g>
            <path id="Path_5322" data-name="Path 5322" d="M10.553,23.1,14.88,47.632c0,3.459,4.818,6.264,10.757,6.264s10.757-2.8,10.757-6.264L40.722,23.1Z" transform="translate(20.279 44.381)" fill="#72473b"/>
            <path id="Path_5323" data-name="Path 5323" d="M37.724,25.448c-2.749-2.159-7.12-3.576-12.087-3.576s-9.34,1.417-12.087,3.576h-3v5.209c0,4.853,6.752,8.785,15.084,8.785s15.084-3.932,15.084-8.785V25.448Z" transform="translate(20.279 42.029)" fill="#a56f58"/>
            <path id="Path_5324" data-name="Path 5324" d="M40.722,28.874c0,4.853-6.755,8.785-15.084,8.785s-15.084-3.932-15.084-8.785,6.752-8.785,15.084-8.785,15.084,3.932,15.084,8.785" transform="translate(20.279 38.603)" fill="#c18774"/>
            <path id="Path_5325" data-name="Path 5325" d="M37.469,28.123c0,4.222-5.875,7.643-13.121,7.643s-13.124-3.421-13.124-7.643S17.1,20.48,24.348,20.48,37.469,23.9,37.469,28.123" transform="translate(21.568 39.355)" fill="#894a3b"/>
            <path id="Path_5326" data-name="Path 5326" d="M23.527,22.674c-5.274,0-9.79,1.823-11.876,4.438,2.086,2.612,6.6,4.435,11.876,4.435s9.79-1.823,11.876-4.435c-2.086-2.615-6.6-4.438-11.876-4.438" transform="translate(22.389 43.571)" fill="#492613"/>
            <path id="Path_5327" data-name="Path 5327" d="M17.148,34.952s1.785-10.281-2.177-16.358" transform="translate(28.768 35.73)" fill="none" stroke="#3e8c65" stroke-linecap="round" stroke-width="0.75"/>
            <path id="Path_5328" data-name="Path 5328" d="M18.3,25.324a2.039,2.039,0,1,1-2.039-2.039A2.039,2.039,0,0,1,18.3,25.324" transform="translate(27.331 44.745)" fill="#492613"/>
            <path id="Path_5329" data-name="Path 5329" d="M18.372,25.441a1.6,1.6,0,1,1-1.6-1.6,1.6,1.6,0,0,1,1.6,1.6" transform="translate(29.145 45.805)" fill="#492613"/>
            <path id="Path_5330" data-name="Path 5330" d="M18.091,24.736a1.144,1.144,0,1,1-1.145-1.145,1.145,1.145,0,0,1,1.145,1.145" transform="translate(30.367 45.333)" fill="#492613"/>
            <path id="Path_5331" data-name="Path 5331" d="M23.731,20.261s-2.089-3.442-6.416-1.4S13.277,23,10.82,23.306c0,0,4.359,2.369,8.113,1.578s5.066-2.735,4.8-4.622" transform="translate(20.792 35.001)" fill="#3e8c65"/>
            <path id="Path_5332" data-name="Path 5332" d="M15.229,21.883s-.894-2.577,2.811-3.45,4.625-1.9,4.625-1.9,2.13,8.043-5.832,8.341c0,0-1.1-.538-1.6-2.986" transform="translate(29.083 31.76)" fill="#3e8c65"/>
            <path id="Path_5333" data-name="Path 5333" d="M16.1,19.123a3.528,3.528,0,0,0-2.647-.365" transform="translate(25.849 35.85)" fill="none" stroke="#25632b" stroke-linecap="round" stroke-width="0.25"/>
            <path id="Path_5334" data-name="Path 5334" d="M15.372,19.254s.73,1.157-1.4,2.1" transform="translate(26.851 36.999)" fill="none" stroke="#25632b" stroke-linecap="round" stroke-width="0.25"/>
            <path id="Path_5335" data-name="Path 5335" d="M16.9,19.205a6.319,6.319,0,0,0-4.444,1.125" transform="translate(23.928 36.802)" fill="none" stroke="#25632b" stroke-linecap="round" stroke-width="0.25"/>
            <path id="Path_5336" data-name="Path 5336" d="M12.629,21.768s1.785-1.034,1.7-2.553" transform="translate(24.268 36.924)" fill="none" stroke="#25632b" stroke-linecap="round" stroke-width="0.25"/>
            <path id="Path_5337" data-name="Path 5337" d="M15.93,20.289a1.949,1.949,0,0,1,.4-2.577" transform="translate(29.986 34.036)" fill="none" stroke="#25632b" stroke-linecap="round" stroke-width="0.25"/>
            <path id="Path_5338" data-name="Path 5338" d="M18.821,20.228a1.719,1.719,0,0,1-2.556-.091,7.33,7.33,0,0,0,3.316-2.831" transform="translate(31.255 33.255)" fill="none" stroke="#25632b" stroke-linecap="round" stroke-linejoin="round" stroke-width="0.25"/>
          </g>
        </g>
      </g>
    </g>
  </g>
</svg>
