<svg xmlns="http://www.w3.org/2000/svg" xmlns:xlink="http://www.w3.org/1999/xlink" width="334" height="372.007" viewBox="0 0 334 372.007">
  <defs>
    <clipPath id="clip-path">
      <rect id="Rectangle_26889" data-name="Rectangle 26889" width="303.543" height="319.114" fill="none"/>
    </clipPath>
    <clipPath id="clip-path-3">
      <rect id="Rectangle_26881" data-name="Rectangle 26881" width="303.353" height="176.889" fill="none"/>
    </clipPath>
    <clipPath id="clip-path-5">
      <rect id="Rectangle_26883" data-name="Rectangle 26883" width="171.77" height="95.489" fill="none"/>
    </clipPath>
    <clipPath id="clip-path-6">
      <rect id="Rectangle_26884" data-name="Rectangle 26884" width="13.011" height="28.517" fill="none"/>
    </clipPath>
    <clipPath id="clip-path-7">
      <rect id="Rectangle_26885" data-name="Rectangle 26885" width="86.809" height="77.543" fill="none"/>
    </clipPath>
    <clipPath id="clip-path-8">
      <rect id="Rectangle_26886" data-name="Rectangle 26886" width="4.49" height="1.085" fill="none"/>
    </clipPath>
  </defs>
  <g id="Group_25750" data-name="Group 25750" transform="translate(-30 -494.993)">
    <path id="Rectangle_26842" data-name="Rectangle 26842" d="M100,0H234A100,100,0,0,1,334,100V350a0,0,0,0,1,0,0H0a0,0,0,0,1,0,0V100A100,100,0,0,1,100,0Z" transform="translate(30 517)" fill="#dbdbdb"/>
    <g id="Group_25458" data-name="Group 25458" transform="translate(44.457 494.993)">
      <g id="Group_25457" data-name="Group 25457" clip-path="url(#clip-path)">
        <g id="Group_25439" data-name="Group 25439">
          <g id="Group_25438" data-name="Group 25438" clip-path="url(#clip-path)">
            <g id="Group_25437" data-name="Group 25437" transform="translate(0.19 142.225)" opacity="0.2" style="mix-blend-mode: normal;isolation: isolate">
              <g id="Group_25436" data-name="Group 25436">
                <g id="Group_25435" data-name="Group 25435" clip-path="url(#clip-path-3)">
                  <path id="Path_5339" data-name="Path 5339" d="M.1,149.291,124.086,76.665l179.37,104.349L179.135,253.552Z" transform="translate(-0.102 -76.664)"/>
                </g>
              </g>
            </g>
          </g>
        </g>
        <path id="Path_5340" data-name="Path 5340" d="M9.2,61.345V171.109l6.026-3.51V57.836Z" transform="translate(7.864 49.459)" fill="#e8e6da"/>
        <path id="Path_5341" data-name="Path 5341" d="M157.089,78.458V188.222l-6.026-3.51V74.95Z" transform="translate(129.183 64.094)" fill="#f8f1e9"/>
        <path id="Path_5342" data-name="Path 5342" d="M173.944,186.178l113.269-66.09L118.907,22.174,5.948,88.342Z" transform="translate(5.086 18.962)" fill="#fff"/>
        <path id="Path_5343" data-name="Path 5343" d="M173.944,176.011l113.269-66.09L118.907,12.007,5.948,78.175Z" transform="translate(5.086 10.268)" fill="#ffaf83"/>
        <path id="Path_5344" data-name="Path 5344" d="M173.944,176.011l113.269-66.09L118.907,12.007,5.948,78.175Z" transform="translate(5.086 10.268)" fill="#ffaf83"/>
        <path id="Path_5345" data-name="Path 5345" d="M5.948,47.675V66.536l168,97.836V145.51Z" transform="translate(5.087 40.769)" fill="#f8f1e9"/>
        <path id="Path_5346" data-name="Path 5346" d="M209.772,64.786V83.648L96.5,149.738V130.876Z" transform="translate(82.526 55.403)" fill="#e8e6da"/>
        <path id="Path_5347" data-name="Path 5347" d="M99.281,112.2V221.959l-6.026-3.51V108.687Z" transform="translate(79.749 92.945)" fill="#f8f1e9"/>
        <path id="Path_5348" data-name="Path 5348" d="M11.974,61.345V171.109L5.948,167.6V57.836Z" transform="translate(5.086 49.459)" fill="#f8f1e9"/>
        <path id="Path_5349" data-name="Path 5349" d="M96.5,112.2V221.959l6.026-3.51V108.687Z" transform="translate(82.526 92.945)" fill="#e8e6da"/>
        <path id="Path_5350" data-name="Path 5350" d="M154.311,78.458V188.222l6.026-3.51V74.95Z" transform="translate(131.961 64.094)" fill="#e8e6da"/>
        <path id="Path_5351" data-name="Path 5351" d="M0,81.16,179.032,185.422l124.322-72.54L123.984,8.535Z" transform="translate(0 7.298)" fill="#ffaf83"/>
        <path id="Path_5352" data-name="Path 5352" d="M123.984,0,0,72.626,179.032,176.889l124.322-72.54Z" transform="translate(0 0)" fill="#ffd2b0"/>
        <path id="Path_5353" data-name="Path 5353" d="M0,54.981,179.032,159.243V143.411L0,39.148Z" transform="translate(0 33.477)" fill="#c1a099"/>
        <path id="Path_5354" data-name="Path 5354" d="M96.505,128.787v15.834L220.827,72.078V56.248Z" transform="translate(82.527 48.101)" fill="#c6867b"/>
        <g id="Group_25456" data-name="Group 25456">
          <g id="Group_25455" data-name="Group 25455" clip-path="url(#clip-path)">
            <g id="Group_25442" data-name="Group 25442" transform="translate(36.012 43.314)" opacity="0.2">
              <g id="Group_25441" data-name="Group 25441">
                <g id="Group_25440" data-name="Group 25440" clip-path="url(#clip-path-5)">
                  <path id="Path_5355" data-name="Path 5355" d="M19.412,73.631l77.624,45.2L191.181,63.98,125.3,25.625l-11.513-2.276L103.576,24.59Z" transform="translate(-19.412 -23.347)"/>
                </g>
              </g>
            </g>
            <g id="Group_25445" data-name="Group 25445" transform="translate(100.624 138.539)" opacity="0.1">
              <g id="Group_25444" data-name="Group 25444">
                <g id="Group_25443" data-name="Group 25443" clip-path="url(#clip-path-6)">
                  <path id="Path_5356" data-name="Path 5356" d="M64.759,74.826l-7.267,4.768L54.24,95.618l13.01,7.576V74.942l0,0-.451-.263Z" transform="translate(-54.24 -74.678)"/>
                </g>
              </g>
            </g>
            <path id="Path_5357" data-name="Path 5357" d="M14.244,106.1A65.205,65.205,0,0,1,23.16,73.754L108,24.319l10.215-1.241,11.513,2.278L195.6,63.71l-94.808,55.243A65.215,65.215,0,0,0,91.879,151.3Z" transform="translate(12.181 19.735)" fill="#fffcf3"/>
            <path id="Path_5358" data-name="Path 5358" d="M14.244,106.1A65.205,65.205,0,0,1,23.16,73.754L108,24.319l10.215-1.241,11.513,2.278L195.6,63.71l-94.808,55.243A65.215,65.215,0,0,0,91.879,151.3Z" transform="translate(12.181 19.735)" fill="#fffcf3"/>
            <path id="Path_5359" data-name="Path 5359" d="M15.249,105.312A64.2,64.2,0,0,1,23.636,75.4l86.883-50.624,6.588-2.018L124.95,25.5l66.1,38.487L98.616,117.85l-.241.371a66.554,66.554,0,0,0-9.129,30.174Z" transform="translate(13.04 19.458)" fill="#6ab5ff"/>
            <path id="Path_5360" data-name="Path 5360" d="M64.78,25.638,86.7,26.783l-9.02-5.248Z" transform="translate(55.397 18.416)" fill="#ededed"/>
            <path id="Path_5361" data-name="Path 5361" d="M81.083,25.8,66.6,25.039l8.719-2.6Z" transform="translate(56.956 19.191)" fill="#4287c6"/>
            <path id="Path_5362" data-name="Path 5362" d="M64.828,43.089l3.363-.215,1.134-1.443,2.269-.742,10.242-2.811v.879l1.712.2.584-.2,2.714-.879V36.262l1.649-.983,1.2.69,1.894,1.243,10.6-.625,5.8-2.851,5.974,1.241h2.258l.618,2.235.84.762,7.716,2.9,1.339,3.289,2.89,2.824,3.5,4.131-4.328,8.5-6.411.879-4.7.664-2.015,3.477,1.174,3.477-.1,6.4-8.747,14.643-7.521,2.814L91.792,95.23l-1.723,2.833h-15.8l-3.4-2.523-4.7-1.249.471,8.593,3.245,3.477.672,1.057.206,2.9L68.6,111.412l1.2,5.38-5.885,1.731L57.943,114.4l-.779-3.3-2.282-1.265-2.913.117L41.7,105.331l-4.534-3.992-.516-6.211-3.195.1-1.339,1.547-.412,1.085H26.554l.412-3.571-1.031-1.837H24.287L23.049,85.5l2-6.267L24.183,72.7l.36-2.9,4.794-1.679,6.8-1.543,4.948,1.141,8.823-1.141,6.224-1.545L61.6,61.549l-1.4-4.658V51.12l2.117-5.41Z" transform="translate(19.711 28.849)" fill="#e0ef79"/>
            <path id="Path_5363" data-name="Path 5363" d="M88.612,34.083l-3.247-.755-2.009,1.006-.425,1.295,1.892,1.931L87.763,39.1l3.786-.781.7-1.518-.618-1.777L89.85,34.8Z" transform="translate(70.92 28.5)" fill="#e0ef79"/>
            <path id="Path_5364" data-name="Path 5364" d="M88.154,39.2V37.742l.57-.091,1.688-.365,2.547.955-.542.955-2.005.332Z" transform="translate(75.386 31.885)" fill="#e0ef79"/>
            <path id="Path_5365" data-name="Path 5365" d="M92.438,66.449l-5.194-5.1,1.315-3.478,2.163-1.855-.881-2.658,1.037-3.5,3.039-3.3,7.551-1.011,6.107,2.119-.722,1.083.334,1.13,1.924,1.033,5.261-.54,3.328-1.924,4.484-.115.464-2.291,2.124-.928,2.887.807Z" transform="translate(74.607 38.584)" fill="#e0ef79"/>
            <path id="Path_5366" data-name="Path 5366" d="M118.163,59.079l-1.223-.25L95.8,52.1,89.916,48.26l-1.009-3.144L115.372,43.4l9.376-3.842-.234-.575-.414-.156-8.866,3.653-26.62,1.723-2.647-8.261v.041l-.872.282,3.844,11.99L76.345,52.263l-8.862,8.432-6.946-1.636.18.6-.453.288,7.5,1.766,3.994-3.831L80.31,69.976,65.133,80.625,48.861,81.847l-24.783-5.17.089.666-.091.284,18.472,3.851-5.194,9.3L35.78,93.3l.128,1.549,2.245-3.6L43.5,81.677l5.235,1.093.065.013,15.96-1.2-1.3,9.567,1.9,2.438L65.3,92.4l.4.106-1.26-1.616,1.293-9.55L80.494,70.982V85.216l2.933,10.955h.955L81.421,85.155V69.943L72.433,57.235l4.3-4.12,12.725-4.046,5.894,3.846,21.214,6.766.237-.408Z" transform="translate(20.589 30.739)" fill="#fff"/>
            <path id="Path_5367" data-name="Path 5367" d="M31.732,73.033l.818.72,12.886-3.929,13.695,1.367-.052-.939L45.343,68.881Z" transform="translate(27.136 58.904)" fill="#fff"/>
            <g id="Group_25448" data-name="Group 25448" transform="translate(26.424 93.487)" opacity="0.2">
              <g id="Group_25447" data-name="Group 25447">
                <g id="Group_25446" data-name="Group 25446" clip-path="url(#clip-path-7)">
                  <path id="Path_5368" data-name="Path 5368" d="M91.878,127.936a65.205,65.205,0,0,1,8.916-32.343l.258-.152L23.159,50.394a65.205,65.205,0,0,0-8.916,32.343Z" transform="translate(-14.244 -50.392)"/>
                </g>
              </g>
            </g>
            <path id="Path_5369" data-name="Path 5369" d="M86.236,34.4H71.552A1.855,1.855,0,0,0,69.7,36.258v8.09A1.853,1.853,0,0,0,71.552,46.2h5.857l1.484,2.573L80.379,46.2h5.857a1.855,1.855,0,0,0,1.855-1.855v-8.09A1.856,1.856,0,0,0,86.236,34.4" transform="translate(59.602 29.42)" fill="#fe7c72"/>
            <path id="Path_5370" data-name="Path 5370" d="M79.733,36.451h0a1.72,1.72,0,0,0-2.432-.006l-.006.006-.879.878-.879-.878a1.72,1.72,0,0,0-2.432-.006l-.006.006a1.72,1.72,0,0,0,0,2.432l0,.006.879.877L76.116,41.9a.43.43,0,0,0,.6,0l2.137-2.137.879-.877a1.72,1.72,0,0,0,.006-2.432l-.006-.006" transform="translate(62.079 30.739)" fill="#fff"/>
            <g id="Group_25451" data-name="Group 25451" transform="translate(136.251 78.677)" opacity="0.2">
              <g id="Group_25450" data-name="Group 25450">
                <g id="Group_25449" data-name="Group 25449" clip-path="url(#clip-path-8)">
                  <path id="Path_5371" data-name="Path 5371" d="M77.934,42.954c0,.3-1.006.544-2.245.544s-2.245-.243-2.245-.544,1.006-.544,2.245-.544,2.245.243,2.245.544" transform="translate(-73.444 -42.41)"/>
                </g>
              </g>
            </g>
            <path id="Path_5372" data-name="Path 5372" d="M62.109,33.594H47.425a1.855,1.855,0,0,0-1.855,1.855v8.09a1.853,1.853,0,0,0,1.855,1.855h5.857l1.484,2.573,1.486-2.573h5.857a1.855,1.855,0,0,0,1.855-1.855v-8.09a1.856,1.856,0,0,0-1.855-1.855" transform="translate(38.97 28.728)" fill="#fe7c72"/>
            <path id="Path_5373" data-name="Path 5373" d="M55.606,35.642h0a1.72,1.72,0,0,0-2.432-.006l-.006.006-.879.877-.879-.877a1.72,1.72,0,0,0-2.432-.006l-.006.006a1.72,1.72,0,0,0,0,2.432l0,.006.879.877,2.137,2.137a.43.43,0,0,0,.6,0l2.137-2.137.879-.877a1.72,1.72,0,0,0,.006-2.432l-.006-.006" transform="translate(41.447 30.047)" fill="#fff"/>
            <g id="Group_25454" data-name="Group 25454" transform="translate(91.491 77.177)" opacity="0.2">
              <g id="Group_25453" data-name="Group 25453">
                <g id="Group_25452" data-name="Group 25452" clip-path="url(#clip-path-8)">
                  <path id="Path_5374" data-name="Path 5374" d="M53.806,42.144c0,.3-1.006.544-2.245.544s-2.245-.243-2.245-.544,1.005-.544,2.245-.544,2.245.243,2.245.544" transform="translate(-49.317 -41.602)"/>
                </g>
              </g>
            </g>
          </g>
        </g>
      </g>
    </g>
  </g>
</svg>
