<svg id="Group_25821" data-name="Group 25821" xmlns="http://www.w3.org/2000/svg" xmlns:xlink="http://www.w3.org/1999/xlink" width="120" height="165.921" viewBox="0 0 120 165.921">
  <defs>
    <linearGradient id="linear-gradient" x1="0.537" y1="0.082" x2="0.481" y2="0.3" gradientUnits="objectBoundingBox">
      <stop offset="0" stop-color="#ff9381"/>
      <stop offset="1" stop-color="#ffb594"/>
    </linearGradient>
    <linearGradient id="linear-gradient-2" x1="0.174" y1="0.447" x2="0.42" y2="0.479" xlink:href="#linear-gradient"/>
    <linearGradient id="linear-gradient-3" x1="0.027" y1="0.556" x2="0.5" y2="0.5" xlink:href="#linear-gradient"/>
    <clipPath id="clip-path">
      <rect id="Rectangle_27084" data-name="Rectangle 27084" width="120" height="165.921" fill="none"/>
    </clipPath>
    <clipPath id="clip-path-3">
      <rect id="Rectangle_27076" data-name="Rectangle 27076" width="120" height="28.423" fill="none"/>
    </clipPath>
    <clipPath id="clip-path-4">
      <path id="Path_9127" data-name="Path 9127" d="M20.927,74.544c7.561,15.277,7.245,21.891,14.254,31.812S57.62,109.9,60.534,97.7s-6.457-19.843-9.056-24.567c0,0-10.63-26.379-22.6-27.088-.293-.017-.58-.025-.862-.025-11.274,0-14.464,13.627-7.092,28.528" transform="translate(-16.955 -46.016)" fill="url(#linear-gradient)"/>
    </clipPath>
    <clipPath id="clip-path-6">
      <path id="Path_9129" data-name="Path 9129" d="M13.4,65.841c8.978,6.7,17.017-4.135,22.28-11.473,0,0-4.118,2.738-14.757-9.42,0,0-16.5,14.194-7.523,20.893" transform="translate(-10.722 -44.948)" fill="url(#linear-gradient-2)"/>
    </clipPath>
    <clipPath id="clip-path-8">
      <path id="Path_9137" data-name="Path 9137" d="M25.2,16.839c-.656.4-2.088,2.555-3.305,3.575a1.452,1.452,0,0,0-.268,2.222c.646.671,1.531.546,3.4,1.474a.559.559,0,0,0,.8-.54l.217-6.289a.558.558,0,0,0-.554-.525.547.547,0,0,0-.287.083" transform="translate(-21.223 -16.756)" fill="url(#linear-gradient-3)"/>
    </clipPath>
  </defs>
  <g id="Group_25820" data-name="Group 25820" clip-path="url(#clip-path)">
    <g id="Group_25807" data-name="Group 25807" transform="translate(0 0)">
      <g id="Group_25806" data-name="Group 25806" clip-path="url(#clip-path)">
        <g id="Group_25805" data-name="Group 25805" transform="translate(0 137.498)" opacity="0.2">
          <g id="Group_25804" data-name="Group 25804">
            <g id="Group_25803" data-name="Group 25803" clip-path="url(#clip-path-3)">
              <path id="Path_9116" data-name="Path 9116" d="M120,86.97c0,7.848-26.863,14.211-60,14.211S0,94.818,0,86.97,26.863,72.759,60,72.759s60,6.363,60,14.211" transform="translate(0 -72.759)"/>
            </g>
          </g>
        </g>
        <path id="Path_9117" data-name="Path 9117" d="M26.472,74a5.914,5.914,0,0,0,1.565,3.955,11.224,11.224,0,0,0,10.851,2.922,6.131,6.131,0,0,0,3.456-2.434,5.367,5.367,0,0,0,.567-1.115,18.172,18.172,0,0,0,.412-5.516Z" transform="translate(23.552 63.898)" fill="#8a8a80"/>
        <path id="Path_9118" data-name="Path 9118" d="M17.507,62.251a6.149,6.149,0,0,0-.643,4.044c.522,2,2.632,8.285,11.293,12.729,0,0,4.681,2.988,7.678,4.7L31.086,73.136,20.266,63.207Z" transform="translate(14.886 55.389)" fill="#8a8a80"/>
        <path id="Path_9119" data-name="Path 9119" d="M39.744,61.2s-3.334-2.389-4.813-.763.183,4.2-1.482,4.309-9.883-5.369-13.359-3.9a4.416,4.416,0,0,0-2.776,2.75c-.716,2.171-1.034,6.85,4.97,12.215s8.031,5,12.232,8.321c0,0,1.226,6.678,10.864,6.561s6.287-15.16,6.287-15.16a20.425,20.425,0,0,0-1.727-5.2c-1.089-1.839-4.571-7.123-10.2-9.131" transform="translate(15.069 53.267)" fill="#292309"/>
        <path id="Path_9120" data-name="Path 9120" d="M31.538,60.316s-2.035-1.277-5.146.641a3.233,3.233,0,0,0-1.185,1.295,8.491,8.491,0,0,0-.758,3.98A12.011,12.011,0,0,0,28.475,75.7c3.016,2.763,4.573,4.339,9.849,2.572,0,0,2.687-.849,3.122-2.587a5.121,5.121,0,0,0,.28-2.232s-.506,2.993-5.367,2.806-7.8-6.554-7.8-6.554-.986-1.589,2.978-9.385" transform="translate(21.753 53.297)" fill="#3b3812"/>
        <path id="Path_9121" data-name="Path 9121" d="M63.62,70.739s-10.63-26.377-22.6-27.086-15.513,13.228-7.954,28.5,7.245,21.889,14.253,31.81,22.441,3.543,25.355-8.661S66.219,75.464,63.62,70.739" transform="translate(25.888 38.818)" fill="#ee916c"/>
        <path id="Path_9122" data-name="Path 9122" d="M13.287,82.27a5.911,5.911,0,0,0,2.166,3.66,11.223,11.223,0,0,0,11.176,1.185,6.128,6.128,0,0,0,3.029-2.946,5.171,5.171,0,0,0,.386-1.191,18.135,18.135,0,0,0-.457-5.512Z" transform="translate(11.822 68.927)" fill="#b5b4a7"/>
        <path id="Path_9123" data-name="Path 9123" d="M2.564,70.883a6.154,6.154,0,0,0,0,4.1c.826,1.89,3.9,7.769,13.149,10.8,0,0,5.093,2.219,8.321,3.437L17.682,79.5,5.438,71.4Z" transform="translate(1.955 63.069)" fill="#b5b4a7"/>
        <path id="Path_9124" data-name="Path 9124" d="M24.142,67.747s-3.666-1.837-4.874,0,.841,4.122-.788,4.488-10.6-3.753-13.8-1.759a4.41,4.41,0,0,0-2.309,3.15C2,75.885,2.417,80.556,9.19,84.912s8.714,3.676,13.385,6.3c0,0,2.258,6.4,11.758,4.775s3.832-15.957,3.832-15.957a20.411,20.411,0,0,0-2.523-4.864c-1.361-1.644-5.63-6.317-11.5-7.419" transform="translate(2.022 59.553)" fill="#544712"/>
        <path id="Path_9125" data-name="Path 9125" d="M22.417,51.794s-3.98,8.194-6.491,24.27a106.8,106.8,0,0,1-3.1,12.089s-2.451,4.619-.665,7.559,7.769,8.084,13.544,1.47a81.448,81.448,0,0,1,2.7-8.636c1.232-2.888,4.067-8.661,4.067-8.661s7.756-10.8,5.216-20.481-11.1-13.733-15.269-7.61" transform="translate(10.236 43.504)" fill="#ee9b7a"/>
        <path id="Path_9126" data-name="Path 9126" d="M15.921,67.131s-2.211-.943-4.981,1.438a3.252,3.252,0,0,0-.968,1.465,8.484,8.484,0,0,0-.123,4.052A12,12,0,0,0,15.307,82.8c3.413,2.256,5.2,3.57,10.133,1,0,0,2.519-1.26,2.676-3.044a5.121,5.121,0,0,0-.074-2.249s-.03,3.035-4.86,3.613-8.731-5.25-8.731-5.25-1.223-1.415,1.47-9.736" transform="translate(8.606 59.567)" fill="#66611f"/>
      </g>
    </g>
    <g id="Group_25809" data-name="Group 25809" transform="translate(32.042 86.959)">
      <g id="Group_25808" data-name="Group 25808" clip-path="url(#clip-path-4)">
        <rect id="Rectangle_27078" data-name="Rectangle 27078" width="75.787" height="85.072" transform="translate(-31.235 13.694) rotate(-26.2)" fill="url(#linear-gradient)"/>
      </g>
    </g>
    <g id="Group_25811" data-name="Group 25811" transform="translate(0 0)">
      <g id="Group_25810" data-name="Group 25810" clip-path="url(#clip-path)">
        <path id="Path_9128" data-name="Path 9128" d="M25.356,76.906s-4.316-9.05-5.628-12.671-2.64-9.281-2.64-9.281" transform="translate(15.204 48.897)" fill="none" stroke="#d18165" stroke-linecap="round" stroke-width="0.5"/>
      </g>
    </g>
    <g id="Group_25813" data-name="Group 25813" transform="translate(20.262 84.941)">
      <g id="Group_25812" data-name="Group 25812" clip-path="url(#clip-path-6)">
        <rect id="Rectangle_27080" data-name="Rectangle 27080" width="41.523" height="41.667" transform="matrix(0.687, -0.726, 0.726, 0.687, -20.076, 14.561)" fill="url(#linear-gradient-2)"/>
      </g>
    </g>
    <g id="Group_25815" data-name="Group 25815" transform="translate(0 0)">
      <g id="Group_25814" data-name="Group 25814" clip-path="url(#clip-path)">
        <path id="Path_9130" data-name="Path 9130" d="M32.775,55.093s-.822,8.82-1.986,15.354a33.87,33.87,0,0,0-6.6,10.945c-2.047,6.113-2.912,9.222.574,18.9S45.61,77.2,45.61,77.2l1.38-18.176L45.215,47.613H32.382Z" transform="translate(19.933 42.365)" fill="#4d84ad"/>
        <path id="Path_9131" data-name="Path 9131" d="M28.848,52.432s-.457,12.317,3.795,11.985,2.986-3.853,3.9-8.561a100.662,100.662,0,0,1,3.347-11.535l-5.528.316L28.391,49.2Z" transform="translate(25.261 39.435)" fill="#e8d97c"/>
        <path id="Path_9132" data-name="Path 9132" d="M53.8,28.948s7.716.539,8.976,10.033,0,23.983,0,23.983l-21.26,3.623-5.669-24.41L37.9,31.467Z" transform="translate(31.897 25.757)" fill="#e8d97c"/>
        <path id="Path_9133" data-name="Path 9133" d="M29.2,42.8s11.023-10.707,19.33-9.916S60.8,37.421,61.533,43.33c.476,3.838-6.387,11.422-11.255,16.267a94.067,94.067,0,0,0-8.7,9.97c-2.122,2.806-4.8,6.183-7.336,8.9,0,0-7.89,1.992-20.052-14.517,0,0-3-5.467-1.621-9.551Z" transform="translate(10.857 29.223)" fill="#fff5ab"/>
        <path id="Path_9134" data-name="Path 9134" d="M49.526,29.792S59.9,28.34,63.68,48.752s-4.656,21.2-4.656,21.2Z" transform="translate(44.066 26.488)" fill="#e8d97c"/>
        <path id="Path_9135" data-name="Path 9135" d="M33.3,37.333a.151.151,0,0,1-.157-.248,19.128,19.128,0,0,1,10.953-4.879c7.183-.709,12.094,5.951,13.739,16.227,0,0,.671,4.265,1.54,8.338a1.856,1.856,0,0,0,2.368,1.395c2.364-.743,6.35-2.256,8.752-4.607A1.75,1.75,0,0,0,71,52.306c.034-3.9-.331-22.1-10.108-22.774,0,0,1.081-1.323,5.752-.83s14.619.9,15.277,19.9c0,0,.493.329.493,1.4s.945,10.564.945,10.564,2.631,15.456,4.851,26.8a67.148,67.148,0,0,1,3.649,28.118c-.015.151-.03.3-.047.452-1.092,9.9-4.458,16.031-14.343,17.269-7.253.909-23.274,4.889-32,2.939-14.287-3.19-23.354-10.549-21.626-21.893s12.824-12.21,15.908-27.87L40.78,69.849S49.129,33.769,33.3,37.333" transform="translate(21.023 25.441)" fill="#4d84ad"/>
        <path id="Path_9136" data-name="Path 9136" d="M55.442,11.784s7.417,15.951,4.375,27.677-17.144,1.483-17.144,1.483S41.42,20.4,55.442,11.784" transform="translate(37.943 10.485)" fill="#ed6237"/>
      </g>
    </g>
    <g id="Group_25817" data-name="Group 25817" transform="translate(40.107 31.665)">
      <g id="Group_25816" data-name="Group 25816" clip-path="url(#clip-path-8)">
        <rect id="Rectangle_27082" data-name="Rectangle 27082" width="8.618" height="9.081" transform="matrix(0.795, -0.607, 0.607, 0.795, -3.9, 2.777)" fill="url(#linear-gradient-3)"/>
      </g>
    </g>
    <g id="Group_25819" data-name="Group 25819" transform="translate(0 0)">
      <g id="Group_25818" data-name="Group 25818" clip-path="url(#clip-path)">
        <path id="Path_9138" data-name="Path 9138" d="M64.625,27.906c0,16.176-13.982,18.3-26.561,22.018-12.081,3.568-15.2-5.841-15.2-22.018S27.759,2.277,40.876,2.277,64.625,11.73,64.625,27.906" transform="translate(20.344 2.026)" fill="#ffb594"/>
        <path id="Path_9139" data-name="Path 9139" d="M43.351,2.224a21.817,21.817,0,0,0-19.99,6.828s-6.926,8-4.354,15.526a16.23,16.23,0,0,0,3.861,1.395,6.083,6.083,0,0,1,.939-1.682s-.4,1.8.99,2.277a5.71,5.71,0,0,0,2.275.395s1.336.3,2.425,3.364c0,0,2.079,6.661,6.147,6.816s4.046-3.352,3.649,5.257,3.067,18.009,15.141,19a12.082,12.082,0,0,0,8.51-3.266s9.3-5.431,10.292-19.688c0,0,2.6-1.342,3.66-17.52,0,0,1.485-12.567-12.765-18.8a25.935,25.935,0,0,0-20.78.1" transform="translate(16.402 0)" fill="#ff743e"/>
        <path id="Path_9140" data-name="Path 9140" d="M27.445,20.157s.8-6.609,6.482-4.32,2.838,10.2-3.961,12.455c0,0-1.648.926-2.527-1.71s.006-6.425.006-6.425" transform="translate(24.068 13.663)" fill="#ffb594"/>
        <path id="Path_9141" data-name="Path 9141" d="M28.479,21.392a.935.935,0,0,1-.471-.96c.2-1.319.9-4.023,3.368-3.515,3.241.669,2.128,4.479.841,5.492s-2.821,2.449-3.464,1.633c-.607-.771,2.447-1.189-.274-2.649" transform="translate(24.912 14.996)" fill="#fc9e70"/>
        <path id="Path_9142" data-name="Path 9142" d="M32.605,1.6S39.879.414,48.339,7.686A11.785,11.785,0,0,0,42.1,2.194a15.552,15.552,0,0,0-9.5-.593" transform="translate(29.011 0.996)" fill="#ed6237"/>
        <path id="Path_9143" data-name="Path 9143" d="M37.646,30.559a5,5,0,0,0-4.452,3.167c-1.485,3.266-.3,5.443,5.443,7.026s9.4,1.088,9.4-3.366-1.385-7.026-4.156-6.828a58.086,58.086,0,0,1-6.234,0" transform="translate(29.015 27.181)" fill="#ff743e"/>
        <path id="Path_9144" data-name="Path 9144" d="M37.027,34.793a5.341,5.341,0,0,0-5.072,4.3c-.816,4.229.892,6.085,3.562,6.382s8.98,1.929,10.615-1.557,2.67-7.347-1.262-8.09-5.146-1.336-7.843-1.039" transform="translate(28.25 30.888)" fill="#ff743e"/>
        <path id="Path_9145" data-name="Path 9145" d="M23.825,15.9s-.792-.263-.544,2.271,1.138,3.409,1.238,1.661-.051-3.846-.694-3.933" transform="translate(20.672 14.138)" fill="#542e23"/>
        <path id="Path_9146" data-name="Path 9146" d="M23.69,22.508l2.234-1.16a.688.688,0,0,1,1,.542c.159,1.432-.641,5.439-1.527,5.439,0,0-.92-.036-1.812-4.59a.214.214,0,0,1,.106-.231" transform="translate(20.98 18.925)" fill="#d85959"/>
        <path id="Path_9147" data-name="Path 9147" d="M34.785,39.88a5.094,5.094,0,0,0-3.543,4.961c-.236,4.173.629,5.276,3.071,5.826S44.863,52.4,45.651,48.3s.079-8.345-2.755-8.425-8.111,0-8.111,0" transform="translate(27.764 35.452)" fill="#ff743e"/>
        <path id="Path_9148" data-name="Path 9148" d="M33.392,45.465a11.529,11.529,0,0,0-.6,10.709l3.594.5.682-1.26.525,1.5,2.967-.106s.743-.331,1.391-1.89a2.511,2.511,0,0,1,0,1.863s1.725.525,2.224-.525,2.814-6.193-.992-10.917Z" transform="translate(28.234 40.338)" fill="#ff743e"/>
        <path id="Path_9149" data-name="Path 9149" d="M54,27.36a3.513,3.513,0,0,1,3.464.748c1.417,1.457,2.336,4.112,1.26,5.429s-4.607,4.556-6.93,3.677-3.5-3.677-3.5-3.677a2.838,2.838,0,0,1,.523-3.024C50.1,29.131,54,27.36,54,27.36" transform="translate(42.765 24.191)" fill="#ed6237"/>
        <path id="Path_9150" data-name="Path 9150" d="M50.872,34.38a3.931,3.931,0,0,0,.242,3.766c1.187,2.166,2.874,3.507,4.651,2.511S60.094,38.147,61,36.416s-1.257-4.071-1.257-4.071-1.937-2.033-3.392-1.774a10.14,10.14,0,0,0-5.482,3.81" transform="translate(44.947 27.181)" fill="#ed6237"/>
        <path id="Path_9151" data-name="Path 9151" d="M59.449,33.943a3,3,0,0,1,2.6,1.776c.591,1.688,1.784,4.743.015,5.94s-6.032,4.178-8.538,2.4-1.875-7.374-.591-7.693,6.516-2.423,6.516-2.423" transform="translate(46.097 30.201)" fill="#ed6237"/>
        <path id="Path_9152" data-name="Path 9152" d="M60.876,38.387a10.267,10.267,0,0,1,2.659,8.627,8.5,8.5,0,0,1-1.27,3.819,7.812,7.812,0,0,0-1.389-2.362,4.443,4.443,0,0,1-.845,2.755l-2.323.215a5.507,5.507,0,0,0-.236-2.472,2.761,2.761,0,0,1-1.1,2.158s-.707-.756-1.654-1.869c-1.054-1.236-1.786-2.232-1.523-8.793,0,0,2.818-4.63,7.682-2.079" transform="translate(47.283 33.473)" fill="#ed6237"/>
        <path id="Path_9153" data-name="Path 9153" d="M32.947,45.543a18.892,18.892,0,0,0,8.661,0" transform="translate(29.315 40.523)" fill="none" stroke="#c10900" stroke-linecap="round" stroke-width="0.75"/>
        <path id="Path_9154" data-name="Path 9154" d="M53.529,40.583a20.872,20.872,0,0,0,6.459-2.415" transform="translate(47.628 33.961)" fill="none" stroke="#c10900" stroke-linecap="round" stroke-width="0.5"/>
        <path id="Path_9155" data-name="Path 9155" d="M36.506,36.429s-5.4-4.3-4.12-14.145" transform="translate(28.641 19.828)" fill="none" stroke="#e04819" stroke-linecap="round" stroke-width="0.75"/>
        <path id="Path_9156" data-name="Path 9156" d="M38.295,34.172s-3.468-4.706-3.232-9.352" transform="translate(31.188 22.084)" fill="none" stroke="#e04819" stroke-linecap="round" stroke-width="0.5"/>
      </g>
    </g>
  </g>
</svg>
